<?xml version="1.0" encoding="utf-8"?>
<!-- Generator: Adobe Illustrator 23.0.0, SVG Export Plug-In . SVG Version: 6.00 Build 0)  -->
<svg version="1.1" id="Layer_1" xmlns="http://www.w3.org/2000/svg" xmlns:xlink="http://www.w3.org/1999/xlink" x="0px" y="0px"
	 viewBox="0 0 110 110" style="enable-background:new 0 0 110 110;" xml:space="preserve">
<style type="text/css">
	.st0{fill:#FFDB84;}
	.st1{fill:#24DB59;}
</style>
<title>fertilizer</title>
<path class="st0" d="M13.5,1c0,0,12,7,44.9,6c40.9,0,41.9-7,41.9-7s-7,11-4,60s6,50,6,50s6-3-41.9-2s-52.9-5-52.9-5s7-13,8-43
	S22.5,13,13.5,1z"/>
<path class="st1" d="M57.9,57.5v16h4v-14c0,0,10,6,12-16C73.8,43.5,49.9,49.5,57.9,57.5z"/>
<path class="st1" d="M53.9,73.5h-4v-8c0,0-10,2-10-14c0,0,18,4,14,12V73.5z"/>
</svg>
