<svg xmlns="http://www.w3.org/2000/svg" viewBox="0 0 30 76"><defs><style>.a{fill:#74db31;}.b{fill:#c2775b;}</style></defs><title>insecticide</title><path class="a" d="M41.16,6h2.61V0H32.23V6h2.61L23,21V74a60.49,60.49,0,0,0,15,2,60.49,60.49,0,0,0,15-2V21Z" transform="translate(-23)"/><path class="b" d="M45.56,30.46a10.15,10.15,0,0,0-1.86-1.67A10,10,0,0,0,29.79,42.7a10.15,10.15,0,0,0,1.67,1.86,10,10,0,0,0,14.1-14.1ZM30.5,37a7.5,7.5,0,0,1,11.39-6.41l-10.3,10.3A7.46,7.46,0,0,1,30.5,37ZM38,44.5a7.48,7.48,0,0,1-4.77-1.71L43.79,32.23A7.5,7.5,0,0,1,38,44.5Z" transform="translate(-23)"/></svg>