<svg xmlns="http://www.w3.org/2000/svg" viewBox="0 0 446.25 347.08"><defs><style>.a{fill:#134597;}.b{fill:#009ad6;}</style></defs><title>intro</title><path class="a" d="M39,102.79h1.29v8.91H51.69v-8.91H53v19.59H51.69v-9.51H40.32v9.51H39Z" transform="translate(-2 -26.46)"/><path class="a" d="M57.91,117.13v-8.44h1.17v8.74a4.29,4.29,0,0,0,1.05,3.24,4,4,0,0,0,2.85,1,4.42,4.42,0,0,0,2.16-.48,3.19,3.19,0,0,0,1.31-1.34,5.7,5.7,0,0,0,.43-2.47v-8.68h1.17v8.47a9.2,9.2,0,0,1-.29,2.58,4.15,4.15,0,0,1-1,1.65,4.19,4.19,0,0,1-1.63,1,6.16,6.16,0,0,1-2.09.32,6.23,6.23,0,0,1-2.24-.37,4.44,4.44,0,0,1-1.63-1,4.08,4.08,0,0,1-1-1.56A8.83,8.83,0,0,1,57.91,117.13Z" transform="translate(-2 -26.46)"/><path class="a" d="M73.91,108.69l.23,1.92h0a7.37,7.37,0,0,1,2-1.7,4.92,4.92,0,0,1,2.46-.57,4.61,4.61,0,0,1,2.83.81,3.93,3.93,0,0,1,1.46,2H83a7.64,7.64,0,0,1,2.1-2.11,4.88,4.88,0,0,1,2.59-.68,4.38,4.38,0,0,1,3.43,1.3,5.19,5.19,0,0,1,1.18,3.64v9.1H91.09v-8.82q0-4.16-3.53-4.15a4,4,0,0,0-2.44.77,8,8,0,0,0-1.91,2.21v10H82v-9.25a3.82,3.82,0,0,0-.93-2.72,3.42,3.42,0,0,0-2.65-1,4.29,4.29,0,0,0-2.32.63,8.35,8.35,0,0,0-2,1.83v10.51H73V108.69Z" transform="translate(-2 -26.46)"/><path class="a" d="M96.25,118.45a3.77,3.77,0,0,1,1.32-3A5.09,5.09,0,0,1,101,114.3a12.37,12.37,0,0,1,4.21.81v-1.76a4,4,0,0,0-1-2.94,4.45,4.45,0,0,0-3.23-1,11.46,11.46,0,0,0-3.51.69V109a4.89,4.89,0,0,1,1.47-.46,11,11,0,0,1,2-.2,5.81,5.81,0,0,1,4.08,1.25,4.9,4.9,0,0,1,1.33,3.76V118q0,1.44.12,4.38h-1.06l-.2-1.6h-.06a5.68,5.68,0,0,1-2,1.38,6,6,0,0,1-2.51.58,4.7,4.7,0,0,1-3.23-1.07A4.05,4.05,0,0,1,96.25,118.45Zm9,1.1v-3.41a11.61,11.61,0,0,0-2-.58,12.5,12.5,0,0,0-2.38-.17,3.59,3.59,0,0,0-2.5.8,2.85,2.85,0,0,0-.9,2.26,3.13,3.13,0,0,0,.89,2.44,3.42,3.42,0,0,0,2.36.8,5.07,5.07,0,0,0,2.65-.63A7.79,7.79,0,0,0,105.2,119.55Z" transform="translate(-2 -26.46)"/><path class="a" d="M112.52,108.69l.21,2.23h0a6.32,6.32,0,0,1,2-1.9,5,5,0,0,1,2.55-.68,4.11,4.11,0,0,1,3.28,1.28,5.57,5.57,0,0,1,1.1,3.73v9h-1.16V113.5a4.94,4.94,0,0,0-.79-3.07,3,3,0,0,0-2.58-1,4.35,4.35,0,0,0-2.41.77,6.85,6.85,0,0,0-2,2.09v10.11h-1.18V108.69Z" transform="translate(-2 -26.46)"/><path class="a" d="M132.55,104.08h1.34v1.41h-1.34Zm.08,4.61h1.18v13.69h-1.18Z" transform="translate(-2 -26.46)"/><path class="a" d="M140,108.69l.2,2.23h0a6.53,6.53,0,0,1,2-1.9,5.08,5.08,0,0,1,2.56-.68,4.1,4.1,0,0,1,3.27,1.28,5.52,5.52,0,0,1,1.11,3.73v9H148V113.5a4.94,4.94,0,0,0-.79-3.07,3.07,3.07,0,0,0-2.58-1,4.4,4.4,0,0,0-2.42.77,7,7,0,0,0-2,2.09v10.11H139V108.69Z" transform="translate(-2 -26.46)"/><path class="a" d="M153.22,115.62a8.13,8.13,0,0,1,1.61-5.31,5.29,5.29,0,0,1,4.32-2,5.9,5.9,0,0,1,2.44.47,4.66,4.66,0,0,1,1.79,1.48h.06l-.06-1.65v-7.47h1.17v18.51q0,1.69.09,2.7h-.88l-.32-1.6h-.06a4.72,4.72,0,0,1-1.82,1.38,5.69,5.69,0,0,1-2.44.58,5.91,5.91,0,0,1-3-.75,5.52,5.52,0,0,1-2.14-2.35A8.88,8.88,0,0,1,153.22,115.62Zm10.16,3.67v-7.77a5.41,5.41,0,0,0-4.2-2.11,4.1,4.1,0,0,0-3.47,1.69,7.48,7.48,0,0,0-1.26,4.58,6.89,6.89,0,0,0,1.25,4.39,4.14,4.14,0,0,0,3.45,1.59,4.85,4.85,0,0,0,2.49-.67A4.52,4.52,0,0,0,163.38,119.29Z" transform="translate(-2 -26.46)"/><path class="a" d="M169.48,117.13v-8.44h1.17v8.74a4.33,4.33,0,0,0,1,3.24,4,4,0,0,0,2.85,1,4.42,4.42,0,0,0,2.16-.48,3.13,3.13,0,0,0,1.31-1.34,5.56,5.56,0,0,0,.43-2.47v-8.68h1.17v8.47a9.2,9.2,0,0,1-.29,2.58,4.15,4.15,0,0,1-1,1.65,4.23,4.23,0,0,1-1.62,1,7,7,0,0,1-4.34,0,4.52,4.52,0,0,1-1.63-1,4.06,4.06,0,0,1-.95-1.56A8.83,8.83,0,0,1,169.48,117.13Z" transform="translate(-2 -26.46)"/><path class="a" d="M183.45,122v-1.22a7.58,7.58,0,0,0,3.72.87,4.26,4.26,0,0,0,2.76-.82,2.74,2.74,0,0,0,1-2.27,2.17,2.17,0,0,0-.67-1.72,5.46,5.46,0,0,0-2.26-1,16.24,16.24,0,0,1-2.37-.73,3.7,3.7,0,0,1-1.51-1.11,3,3,0,0,1-.59-1.94,3.28,3.28,0,0,1,1.29-2.85,5.51,5.51,0,0,1,3.3-.93,7.59,7.59,0,0,1,3.41.78v1.14a9.87,9.87,0,0,0-1.65-.65,6.83,6.83,0,0,0-1.85-.23,3.93,3.93,0,0,0-2.51.69,2.37,2.37,0,0,0-.86,2,2.09,2.09,0,0,0,.4,1.37,2.49,2.49,0,0,0,1.11.75,21.34,21.34,0,0,0,2.12.62,6.55,6.55,0,0,1,2.88,1.34,3.13,3.13,0,0,1,.9,2.41,3.87,3.87,0,0,1-1.32,3.08,5.26,5.26,0,0,1-3.6,1.15A7.8,7.8,0,0,1,183.45,122Z" transform="translate(-2 -26.46)"/><path class="a" d="M196.52,119.11v-9.3h-2.71v-1.12h2.71V105h1.17v3.66h4.19v1.12h-4.19v9a3.25,3.25,0,0,0,.61,2.24,2.58,2.58,0,0,0,1.94.65,5.6,5.6,0,0,0,1.86-.25v1a6.28,6.28,0,0,1-2.08.31,3.49,3.49,0,0,1-2.57-.91A3.63,3.63,0,0,1,196.52,119.11Z" transform="translate(-2 -26.46)"/><path class="a" d="M206.59,108.69l.21,2.44h0a6.25,6.25,0,0,1,2.29-2,6.52,6.52,0,0,1,3.06-.79h.38v1.16h-.38a6.27,6.27,0,0,0-5.35,3.18v9.7h-1.17V108.69Z" transform="translate(-2 -26.46)"/><path class="a" d="M215.38,104.08h1.35v1.41h-1.35Zm.09,4.61h1.17v13.69h-1.17Z" transform="translate(-2 -26.46)"/><path class="a" d="M220.77,118.45a3.78,3.78,0,0,1,1.33-3,5.05,5.05,0,0,1,3.42-1.15,12.27,12.27,0,0,1,4.2.81v-1.76a3.91,3.91,0,0,0-1-2.94,4.42,4.42,0,0,0-3.22-1,11.46,11.46,0,0,0-3.52.69V109a5.07,5.07,0,0,1,1.48-.46,11,11,0,0,1,2-.2,5.78,5.78,0,0,1,4.07,1.25,4.9,4.9,0,0,1,1.34,3.76V118c0,1,0,2.42.11,4.38h-1l-.21-1.6h-.05a5.73,5.73,0,0,1-2,1.38,6,6,0,0,1-2.5.58,4.68,4.68,0,0,1-3.23-1.07A4,4,0,0,1,220.77,118.45Zm8.95,1.1v-3.41a11.61,11.61,0,0,0-2-.58,12.43,12.43,0,0,0-2.38-.17,3.58,3.58,0,0,0-2.49.8,2.86,2.86,0,0,0-.91,2.26,3.1,3.1,0,0,0,.9,2.44,3.41,3.41,0,0,0,2.36.8,5.1,5.1,0,0,0,2.65-.63A7.73,7.73,0,0,0,229.72,119.55Z" transform="translate(-2 -26.46)"/><path class="a" d="M236.11,101.17h1.17v21.21h-1.17Z" transform="translate(-2 -26.46)"/><path class="a" d="M242.41,104.08h1.35v1.41h-1.35Zm.09,4.61h1.17v13.69H242.5Z" transform="translate(-2 -26.46)"/><path class="a" d="M247.39,121.78l8.48-12H247.6v-1.12h9.78v.84L249,121.28h8.89v1.1h-10.5Z" transform="translate(-2 -26.46)"/><path class="a" d="M260.52,118.45a3.77,3.77,0,0,1,1.32-3,5.07,5.07,0,0,1,3.42-1.15,12.37,12.37,0,0,1,4.21.81v-1.76a4,4,0,0,0-1-2.94,4.45,4.45,0,0,0-3.23-1,11.41,11.41,0,0,0-3.51.69V109a4.89,4.89,0,0,1,1.47-.46,11,11,0,0,1,2-.2,5.76,5.76,0,0,1,4.07,1.25,4.9,4.9,0,0,1,1.34,3.76V118c0,1,0,2.42.11,4.38H269.7l-.2-1.6h-.06a5.73,5.73,0,0,1-2,1.38,6,6,0,0,1-2.5.58,4.68,4.68,0,0,1-3.23-1.07A4,4,0,0,1,260.52,118.45Zm9,1.1v-3.41a11.88,11.88,0,0,0-2-.58,12.57,12.57,0,0,0-2.38-.17,3.59,3.59,0,0,0-2.5.8,2.85,2.85,0,0,0-.9,2.26,3.09,3.09,0,0,0,.89,2.44,3.42,3.42,0,0,0,2.36.8,5.1,5.1,0,0,0,2.65-.63A8,8,0,0,0,269.47,119.55Z" transform="translate(-2 -26.46)"/><path class="a" d="M276.25,119.11v-9.3h-2.71v-1.12h2.71V105h1.17v3.66h4.19v1.12h-4.19v9A3.24,3.24,0,0,0,278,121a2.55,2.55,0,0,0,1.93.65,5.6,5.6,0,0,0,1.86-.25v1a6.28,6.28,0,0,1-2.08.31,3.51,3.51,0,0,1-2.57-.91A3.63,3.63,0,0,1,276.25,119.11Z" transform="translate(-2 -26.46)"/><path class="a" d="M285.3,104.08h1.35v1.41H285.3Zm.09,4.61h1.17v13.69h-1.17Z" transform="translate(-2 -26.46)"/><path class="a" d="M290.76,115.56a7.84,7.84,0,0,1,1.68-5.25,5.58,5.58,0,0,1,4.46-2,5.51,5.51,0,0,1,4.45,2,7.88,7.88,0,0,1,1.65,5.25,7.8,7.8,0,0,1-1.69,5.2,5.5,5.5,0,0,1-4.41,2,5.61,5.61,0,0,1-4.47-1.95A7.82,7.82,0,0,1,290.76,115.56Zm11,0a7,7,0,0,0-1.32-4.49,4.66,4.66,0,0,0-7.13,0,7,7,0,0,0-1.32,4.49,6.93,6.93,0,0,0,1.31,4.46,4.35,4.35,0,0,0,3.59,1.64,4.31,4.31,0,0,0,3.56-1.64A6.93,6.93,0,0,0,301.77,115.56Z" transform="translate(-2 -26.46)"/><path class="a" d="M308.14,108.69l.2,2.23h0a6.42,6.42,0,0,1,2-1.9,5.08,5.08,0,0,1,2.56-.68,4.1,4.1,0,0,1,3.27,1.28,5.52,5.52,0,0,1,1.11,3.73v9h-1.16V113.5a4.94,4.94,0,0,0-.79-3.07,3.07,3.07,0,0,0-2.58-1,4.38,4.38,0,0,0-2.42.77,7,7,0,0,0-2,2.09v10.11H307.2V108.69Z" transform="translate(-2 -26.46)"/><path class="a" d="M328.16,104.08h1.35v1.41h-1.35Zm.09,4.61h1.17v13.69h-1.17Z" transform="translate(-2 -26.46)"/><path class="a" d="M333.55,122v-1.22a7.63,7.63,0,0,0,3.72.87,4.27,4.27,0,0,0,2.77-.82,2.76,2.76,0,0,0,1-2.27,2.17,2.17,0,0,0-.67-1.72,5.39,5.39,0,0,0-2.26-1,17.06,17.06,0,0,1-2.37-.73,3.7,3.7,0,0,1-1.51-1.11,3,3,0,0,1-.58-1.94,3.27,3.27,0,0,1,1.28-2.85,5.51,5.51,0,0,1,3.3-.93,7.59,7.59,0,0,1,3.41.78v1.14a9.46,9.46,0,0,0-1.64-.65,6.91,6.91,0,0,0-1.86-.23,3.93,3.93,0,0,0-2.51.69,2.37,2.37,0,0,0-.86,2,2.09,2.09,0,0,0,.41,1.37,2.4,2.4,0,0,0,1.1.75,20.89,20.89,0,0,0,2.13.62,6.56,6.56,0,0,1,2.87,1.34,3.14,3.14,0,0,1,.91,2.41,3.87,3.87,0,0,1-1.32,3.08,5.29,5.29,0,0,1-3.61,1.15A7.8,7.8,0,0,1,333.55,122Z" transform="translate(-2 -26.46)"/><path class="a" d="M353,108.69l.23,1.92h0a7.08,7.08,0,0,1,2-1.7,4.92,4.92,0,0,1,2.46-.57,4.63,4.63,0,0,1,2.83.81,3.93,3.93,0,0,1,1.46,2h.06a7.38,7.38,0,0,1,2.1-2.11,4.88,4.88,0,0,1,2.59-.68,4.39,4.39,0,0,1,3.43,1.3,5.19,5.19,0,0,1,1.18,3.64v9.1h-1.17v-8.82q0-4.16-3.53-4.15a4,4,0,0,0-2.44.77,7.88,7.88,0,0,0-1.91,2.21v10h-1.17v-9.25a3.82,3.82,0,0,0-.93-2.72,3.45,3.45,0,0,0-2.65-1,4.33,4.33,0,0,0-2.33.63,8.33,8.33,0,0,0-2,1.83v10.51h-1.17V108.69Z" transform="translate(-2 -26.46)"/><path class="a" d="M375.42,115.56a7.89,7.89,0,0,1,1.67-5.25,5.59,5.59,0,0,1,4.47-2,5.5,5.5,0,0,1,4.44,2,7.88,7.88,0,0,1,1.65,5.25,7.75,7.75,0,0,1-1.69,5.2,5.5,5.5,0,0,1-4.4,2,5.58,5.58,0,0,1-4.47-1.95A7.76,7.76,0,0,1,375.42,115.56Zm11,0a7,7,0,0,0-1.32-4.49,4.66,4.66,0,0,0-7.13,0,7,7,0,0,0-1.32,4.49A6.93,6.93,0,0,0,378,120a4.73,4.73,0,0,0,7.16,0A7,7,0,0,0,386.42,115.56Z" transform="translate(-2 -26.46)"/><path class="a" d="M392.79,108.69l.21,2.44h0a6.17,6.17,0,0,1,2.29-2,6.51,6.51,0,0,1,3.05-.79h.38v1.16h-.38a6,6,0,0,0-3.1.88,5.82,5.82,0,0,0-2.24,2.3v9.7h-1.18V108.69Z" transform="translate(-2 -26.46)"/><path class="a" d="M400.66,115.39a8.88,8.88,0,0,1,.74-3.74,5.81,5.81,0,0,1,2.06-2.45,5.19,5.19,0,0,1,2.92-.86,4.93,4.93,0,0,1,3.84,1.58q1.44,1.58,1.44,5v.51h-9.77a6.74,6.74,0,0,0,1.42,4.75,5.22,5.22,0,0,0,4,1.52,9,9,0,0,0,3.86-.78V122a8,8,0,0,1-3.86.76,6.27,6.27,0,0,1-4.92-1.92A7.8,7.8,0,0,1,400.66,115.39Zm5.72-6a3.94,3.94,0,0,0-3.06,1.39,5.74,5.74,0,0,0-1.4,3.56h8.54a5.94,5.94,0,0,0-1.07-3.69A3.67,3.67,0,0,0,406.38,109.38Z" transform="translate(-2 -26.46)"/><path class="a" d="M37.08,144.69l.21,2.44h0a6.17,6.17,0,0,1,2.29-2,6.51,6.51,0,0,1,3-.79H43v1.16h-.38a6,6,0,0,0-3.09.88,5.78,5.78,0,0,0-2.25,2.3v9.7H36.15V144.69Z" transform="translate(-2 -26.46)"/><path class="a" d="M44.88,154.45a3.77,3.77,0,0,1,1.32-3,5.07,5.07,0,0,1,3.42-1.15,12.37,12.37,0,0,1,4.21.81v-1.76a3.92,3.92,0,0,0-1-2.94,4.41,4.41,0,0,0-3.22-1,11.41,11.41,0,0,0-3.51.69V145a4.89,4.89,0,0,1,1.47-.46,11,11,0,0,1,2-.2,5.76,5.76,0,0,1,4.07,1.25A4.9,4.9,0,0,1,55,149.35V154c0,1,0,2.42.11,4.38h-1l-.21-1.6H53.8a5.73,5.73,0,0,1-2,1.38,6,6,0,0,1-2.5.58,4.68,4.68,0,0,1-3.23-1.07A4,4,0,0,1,44.88,154.45Zm8.95,1.1v-3.41a11.88,11.88,0,0,0-2-.58,12.57,12.57,0,0,0-2.38-.17,3.59,3.59,0,0,0-2.5.8,2.85,2.85,0,0,0-.9,2.26,3.09,3.09,0,0,0,.89,2.44,3.42,3.42,0,0,0,2.36.8,5.1,5.1,0,0,0,2.65-.63A8,8,0,0,0,53.83,155.55Z" transform="translate(-2 -26.46)"/><path class="a" d="M61.15,144.69l.23,1.92h0a7.37,7.37,0,0,1,2-1.7,4.94,4.94,0,0,1,2.46-.57,4.61,4.61,0,0,1,2.83.81,3.93,3.93,0,0,1,1.46,2h.06A7.64,7.64,0,0,1,72.3,145a4.88,4.88,0,0,1,2.59-.68,4.41,4.41,0,0,1,3.44,1.3,5.24,5.24,0,0,1,1.17,3.64v9.1H78.33v-8.82c0-2.77-1.17-4.15-3.53-4.15a4,4,0,0,0-2.44.77,8,8,0,0,0-1.91,2.21v10H69.28v-9.25a3.82,3.82,0,0,0-.93-2.72,3.42,3.42,0,0,0-2.64-1,4.3,4.3,0,0,0-2.33.63,8.35,8.35,0,0,0-2,1.83v10.51H60.21V144.69Z" transform="translate(-2 -26.46)"/><path class="a" d="M85.38,144.69l.36,1.6h0a5.35,5.35,0,0,1,1.9-1.4,5.7,5.7,0,0,1,2.34-.55,5.32,5.32,0,0,1,4.38,1.86,8,8,0,0,1,1.52,5.22,8.65,8.65,0,0,1-1,4.53,5.19,5.19,0,0,1-2.32,2.21,6.33,6.33,0,0,1-2.58.58,5.57,5.57,0,0,1-4.27-1.68h0l0,2.66v5.47H84.57v-20.5Zm9.3,6.76A7.13,7.13,0,0,0,93.45,147,4.12,4.12,0,0,0,90,145.41a5,5,0,0,0-2.46.65,4.89,4.89,0,0,0-1.81,1.64v8.16a6.91,6.91,0,0,0,2,1.37,5.54,5.54,0,0,0,2.25.43,5,5,0,0,0,3.21-1.23Q94.68,155.22,94.68,151.45Z" transform="translate(-2 -26.46)"/><path class="a" d="M99,154.45a3.75,3.75,0,0,1,1.33-3,5.05,5.05,0,0,1,3.42-1.15,12.27,12.27,0,0,1,4.2.81v-1.76a4,4,0,0,0-1-2.94,4.42,4.42,0,0,0-3.22-1,11.46,11.46,0,0,0-3.52.69V145a5,5,0,0,1,1.47-.46,11,11,0,0,1,2-.2,5.8,5.8,0,0,1,4.07,1.25,4.9,4.9,0,0,1,1.33,3.76V154q0,1.44.12,4.38h-1l-.21-1.6H108a5.68,5.68,0,0,1-2,1.38,6,6,0,0,1-2.51.58,4.72,4.72,0,0,1-3.23-1.07A4.05,4.05,0,0,1,99,154.45Zm9,1.1v-3.41a11.61,11.61,0,0,0-2-.58,12.43,12.43,0,0,0-2.38-.17,3.61,3.61,0,0,0-2.5.8,2.85,2.85,0,0,0-.9,2.26,3.1,3.1,0,0,0,.9,2.44,3.4,3.4,0,0,0,2.35.8,5.13,5.13,0,0,0,2.66-.63A7.94,7.94,0,0,0,108,155.55Z" transform="translate(-2 -26.46)"/><path class="a" d="M115.31,144.69l.2,2.23h0a6.42,6.42,0,0,1,2-1.9,5,5,0,0,1,2.55-.68,4.11,4.11,0,0,1,3.28,1.28,5.52,5.52,0,0,1,1.1,3.73v9h-1.15V149.5a5,5,0,0,0-.79-3.07,3.07,3.07,0,0,0-2.58-1,4.38,4.38,0,0,0-2.42.77,7,7,0,0,0-2,2.09v10.11h-1.17V144.69Z" transform="translate(-2 -26.46)"/><path class="a" d="M130,155.11v-9.3h-2.71v-1.12H130V141h1.17v3.66h4.19v1.12h-4.19v9a3.24,3.24,0,0,0,.62,2.24,2.55,2.55,0,0,0,1.93.65,5.6,5.6,0,0,0,1.86-.25v1a6.28,6.28,0,0,1-2.08.31,3.51,3.51,0,0,1-2.57-.91A3.63,3.63,0,0,1,130,155.11Z" transform="translate(-2 -26.46)"/><path class="a" d="M145.35,155.11v-9.3h-2.71v-1.12h2.71V141h1.17v3.66h4.19v1.12h-4.19v9a3.24,3.24,0,0,0,.62,2.24,2.55,2.55,0,0,0,1.93.65,5.6,5.6,0,0,0,1.86-.25v1a6.28,6.28,0,0,1-2.08.31,3.51,3.51,0,0,1-2.57-.91A3.63,3.63,0,0,1,145.35,155.11Z" transform="translate(-2 -26.46)"/><path class="a" d="M155.66,137.17v8.18l-.06,1.57h.06a5.53,5.53,0,0,1,4.59-2.58,4,4,0,0,1,3.32,1.33,5.78,5.78,0,0,1,1.06,3.68v9h-1.16v-9.13a4.48,4.48,0,0,0-.8-2.82,3,3,0,0,0-2.48-1q-2.62,0-4.53,2.86v10.11h-1.17V137.17Z" transform="translate(-2 -26.46)"/><path class="a" d="M168.61,154.45a3.75,3.75,0,0,1,1.33-3,5.05,5.05,0,0,1,3.42-1.15,12.27,12.27,0,0,1,4.2.81v-1.76a4,4,0,0,0-1-2.94,4.42,4.42,0,0,0-3.22-1,11.46,11.46,0,0,0-3.52.69V145a5,5,0,0,1,1.47-.46,11,11,0,0,1,2.05-.2,5.8,5.8,0,0,1,4.07,1.25,4.9,4.9,0,0,1,1.33,3.76V154q0,1.44.12,4.38h-1l-.21-1.6h-.06a5.68,5.68,0,0,1-2,1.38,6,6,0,0,1-2.51.58,4.72,4.72,0,0,1-3.23-1.07A4.05,4.05,0,0,1,168.61,154.45Zm8.95,1.1v-3.41a11.61,11.61,0,0,0-2-.58,12.43,12.43,0,0,0-2.38-.17,3.61,3.61,0,0,0-2.5.8,2.85,2.85,0,0,0-.9,2.26,3.1,3.1,0,0,0,.9,2.44,3.4,3.4,0,0,0,2.35.8,5.13,5.13,0,0,0,2.66-.63A7.94,7.94,0,0,0,177.56,155.55Z" transform="translate(-2 -26.46)"/><path class="a" d="M184.89,144.69l.2,2.23h0a6.42,6.42,0,0,1,2-1.9,5,5,0,0,1,2.55-.68,4.11,4.11,0,0,1,3.28,1.28,5.52,5.52,0,0,1,1.1,3.73v9h-1.15V149.5a5,5,0,0,0-.79-3.07,3.07,3.07,0,0,0-2.58-1,4.38,4.38,0,0,0-2.42.77,7,7,0,0,0-2,2.09v10.11H184V144.69Z" transform="translate(-2 -26.46)"/><path class="a" d="M204,151.39a8.88,8.88,0,0,1,.74-3.74,5.86,5.86,0,0,1,2.05-2.45,5.24,5.24,0,0,1,2.93-.86,4.93,4.93,0,0,1,3.84,1.58q1.44,1.58,1.44,5v.51h-9.77a6.74,6.74,0,0,0,1.42,4.75,5.22,5.22,0,0,0,4,1.52,9,9,0,0,0,3.86-.78V158a8,8,0,0,1-3.86.76,6.27,6.27,0,0,1-4.92-1.92A7.8,7.8,0,0,1,204,151.39Zm5.72-6a3.94,3.94,0,0,0-3.06,1.39,5.74,5.74,0,0,0-1.4,3.56h8.54a5.94,5.94,0,0,0-1.07-3.69A3.67,3.67,0,0,0,209.71,145.38Z" transform="translate(-2 -26.46)"/><path class="a" d="M218.71,144.69l3.57,9.79c.38,1,.7,1.91.95,2.75h.06l4.57-12.54h1.26l-5.2,13.69h-1.29l-5.18-13.69Z" transform="translate(-2 -26.46)"/><path class="a" d="M231.41,151.39a8.73,8.73,0,0,1,.75-3.74,5.72,5.72,0,0,1,2.05-2.45,5.22,5.22,0,0,1,2.93-.86,4.92,4.92,0,0,1,3.83,1.58q1.44,1.58,1.44,5v.51h-9.77a6.74,6.74,0,0,0,1.42,4.75,5.22,5.22,0,0,0,4,1.52,9.1,9.1,0,0,0,3.87-.78V158a8,8,0,0,1-3.87.76,6.27,6.27,0,0,1-4.92-1.92A7.85,7.85,0,0,1,231.41,151.39Zm5.73-6a3.94,3.94,0,0,0-3.06,1.39,5.8,5.8,0,0,0-1.41,3.56h8.54a5.94,5.94,0,0,0-1.07-3.69A3.63,3.63,0,0,0,237.14,145.38Z" transform="translate(-2 -26.46)"/><path class="a" d="M247.87,144.69l.21,2.44h0a6.25,6.25,0,0,1,2.29-2,6.52,6.52,0,0,1,3.06-.79h.38v1.16h-.38a6.27,6.27,0,0,0-5.35,3.18v9.7h-1.17V144.69Z" transform="translate(-2 -26.46)"/><path class="a" d="M261.51,154.45a3.75,3.75,0,0,1,1.33-3,5.05,5.05,0,0,1,3.42-1.15,12.27,12.27,0,0,1,4.2.81v-1.76a3.91,3.91,0,0,0-1-2.94,4.42,4.42,0,0,0-3.22-1,11.46,11.46,0,0,0-3.52.69V145a5.07,5.07,0,0,1,1.48-.46,10.85,10.85,0,0,1,2-.2,5.8,5.8,0,0,1,4.07,1.25,4.9,4.9,0,0,1,1.33,3.76V154q0,1.44.12,4.38H270.7l-.21-1.6h-.06a5.68,5.68,0,0,1-2,1.38,6,6,0,0,1-2.51.58,4.72,4.72,0,0,1-3.23-1.07A4.05,4.05,0,0,1,261.51,154.45Zm8.95,1.1v-3.41a11.61,11.61,0,0,0-2-.58,12.43,12.43,0,0,0-2.38-.17,3.61,3.61,0,0,0-2.5.8,2.85,2.85,0,0,0-.9,2.26,3.1,3.1,0,0,0,.9,2.44,3.4,3.4,0,0,0,2.35.8,5.13,5.13,0,0,0,2.66-.63A7.94,7.94,0,0,0,270.46,155.55Z" transform="translate(-2 -26.46)"/><path class="a" d="M277.79,144.69l.2,2.23h0a6.42,6.42,0,0,1,2-1.9,5.05,5.05,0,0,1,2.56-.68,4.1,4.1,0,0,1,3.27,1.28,5.52,5.52,0,0,1,1.11,3.73v9h-1.16V149.5a5,5,0,0,0-.79-3.07,3.07,3.07,0,0,0-2.58-1,4.38,4.38,0,0,0-2.42.77,7,7,0,0,0-2,2.09v10.11h-1.17V144.69Z" transform="translate(-2 -26.46)"/><path class="a" d="M291,151.62a8.19,8.19,0,0,1,1.61-5.31,5.33,5.33,0,0,1,4.33-2,5.93,5.93,0,0,1,2.44.47,4.73,4.73,0,0,1,1.79,1.48h.06l-.06-1.65v-7.47h1.17v18.51q0,1.69.09,2.7h-.88l-.32-1.6h-.06a4.72,4.72,0,0,1-1.82,1.38,5.69,5.69,0,0,1-2.44.58A5.91,5.91,0,0,1,294,158a5.46,5.46,0,0,1-2.14-2.35A8.75,8.75,0,0,1,291,151.62Zm10.17,3.67v-7.77a5.41,5.41,0,0,0-4.21-2.11,4.08,4.08,0,0,0-3.46,1.69,7.48,7.48,0,0,0-1.27,4.58,6.89,6.89,0,0,0,1.26,4.39,4.14,4.14,0,0,0,3.45,1.59,4.9,4.9,0,0,0,2.49-.67A4.52,4.52,0,0,0,301.21,155.29Z" transform="translate(-2 -26.46)"/><path class="a" d="M313.35,140.08h1.35v1.41h-1.35Zm.09,4.61h1.17v13.69h-1.17Z" transform="translate(-2 -26.46)"/><path class="a" d="M320.22,155.11v-9.3h-2.71v-1.12h2.71V141h1.17v3.66h4.19v1.12h-4.19v9A3.24,3.24,0,0,0,322,157a2.55,2.55,0,0,0,1.93.65,5.6,5.6,0,0,0,1.86-.25v1a6.24,6.24,0,0,1-2.08.31,3.51,3.51,0,0,1-2.57-.91A3.63,3.63,0,0,1,320.22,155.11Z" transform="translate(-2 -26.46)"/><path class="a" d="M328,145.27l2-6.48h1.51l-2.34,6.48Z" transform="translate(-2 -26.46)"/><path class="a" d="M333.3,158v-1.22a7.63,7.63,0,0,0,3.72.87,4.27,4.27,0,0,0,2.77-.82,2.76,2.76,0,0,0,1-2.27,2.17,2.17,0,0,0-.67-1.72,5.39,5.39,0,0,0-2.26-1,17.06,17.06,0,0,1-2.37-.73,3.77,3.77,0,0,1-1.51-1.11,3,3,0,0,1-.58-1.94,3.28,3.28,0,0,1,1.29-2.85,5.45,5.45,0,0,1,3.29-.93,7.59,7.59,0,0,1,3.41.78v1.14a9.46,9.46,0,0,0-1.64-.65,6.91,6.91,0,0,0-1.86-.23,3.93,3.93,0,0,0-2.51.69,2.37,2.37,0,0,0-.86,2,2.09,2.09,0,0,0,.41,1.37,2.45,2.45,0,0,0,1.1.75,20.89,20.89,0,0,0,2.13.62,6.61,6.61,0,0,1,2.88,1.34,3.13,3.13,0,0,1,.9,2.41,3.87,3.87,0,0,1-1.32,3.08,5.29,5.29,0,0,1-3.61,1.15A7.8,7.8,0,0,1,333.3,158Z" transform="translate(-2 -26.46)"/><path class="a" d="M351.82,137.17H353v21.21h-1.17Z" transform="translate(-2 -26.46)"/><path class="a" d="M357.2,151.39a8.73,8.73,0,0,1,.74-3.74A5.79,5.79,0,0,1,360,145.2a5.24,5.24,0,0,1,2.93-.86,5,5,0,0,1,3.84,1.58q1.44,1.58,1.44,5v.51h-9.77a6.74,6.74,0,0,0,1.42,4.75,5.21,5.21,0,0,0,4,1.52,9,9,0,0,0,3.86-.78V158a8,8,0,0,1-3.86.76,6.31,6.31,0,0,1-4.93-1.92A7.85,7.85,0,0,1,357.2,151.39Zm5.72-6a3.94,3.94,0,0,0-3.06,1.39,5.74,5.74,0,0,0-1.4,3.56H367a5.94,5.94,0,0,0-1.07-3.69A3.67,3.67,0,0,0,362.92,145.38Z" transform="translate(-2 -26.46)"/><path class="a" d="M371.71,151.62a8.19,8.19,0,0,1,1.61-5.31,5.32,5.32,0,0,1,4.32-2,5.9,5.9,0,0,1,2.44.47,4.68,4.68,0,0,1,1.8,1.48h.06l-.06-1.65v-7.47h1.17v18.51q0,1.69.09,2.7h-.88l-.32-1.6h-.06a4.68,4.68,0,0,1-1.83,1.38,5.62,5.62,0,0,1-2.43.58,5.91,5.91,0,0,1-2.95-.75,5.46,5.46,0,0,1-2.14-2.35A8.75,8.75,0,0,1,371.71,151.62Zm10.17,3.67v-7.77a5.41,5.41,0,0,0-4.21-2.11,4.08,4.08,0,0,0-3.46,1.69,7.41,7.41,0,0,0-1.27,4.58,6.89,6.89,0,0,0,1.26,4.39,4.13,4.13,0,0,0,3.44,1.59,4.85,4.85,0,0,0,2.49-.67A4.48,4.48,0,0,0,381.88,155.29Z" transform="translate(-2 -26.46)"/><path class="a" d="M394.5,155.11v-9.3h-2.71v-1.12h2.71V141h1.18v3.66h4.19v1.12h-4.19v9a3.25,3.25,0,0,0,.61,2.24,2.58,2.58,0,0,0,1.94.65,5.6,5.6,0,0,0,1.86-.25v1a6.28,6.28,0,0,1-2.08.31,3.48,3.48,0,0,1-2.57-.91A3.59,3.59,0,0,1,394.5,155.11Z" transform="translate(-2 -26.46)"/><path class="a" d="M402.63,151.56a7.84,7.84,0,0,1,1.68-5.25,5.58,5.58,0,0,1,4.46-2,5.51,5.51,0,0,1,4.45,2,7.88,7.88,0,0,1,1.65,5.25,7.8,7.8,0,0,1-1.69,5.2,5.5,5.5,0,0,1-4.41,2,5.61,5.61,0,0,1-4.47-2A7.82,7.82,0,0,1,402.63,151.56Zm11,0a7,7,0,0,0-1.32-4.49,4.66,4.66,0,0,0-7.13,0,7,7,0,0,0-1.32,4.49,6.93,6.93,0,0,0,1.31,4.46,4.35,4.35,0,0,0,3.59,1.64,4.31,4.31,0,0,0,3.56-1.64A6.93,6.93,0,0,0,413.64,151.56Z" transform="translate(-2 -26.46)"/><path class="a" d="M31.94,180.69l.37,1.6h0a5.31,5.31,0,0,1,1.89-1.4,5.7,5.7,0,0,1,2.34-.55A5.34,5.34,0,0,1,41,182.2a8,8,0,0,1,1.51,5.22,8.75,8.75,0,0,1-1,4.53,5.29,5.29,0,0,1-2.32,2.21,6.41,6.41,0,0,1-2.59.58,5.53,5.53,0,0,1-4.26-1.68h0l0,2.66v5.47H31.14v-20.5Zm9.3,6.76A7.13,7.13,0,0,0,40,183a4.12,4.12,0,0,0-3.44-1.58,5.23,5.23,0,0,0-4.26,2.29v8.16a6.74,6.74,0,0,0,2,1.37,5.54,5.54,0,0,0,2.25.43,5,5,0,0,0,3.21-1.23Q41.24,191.22,41.24,187.45Z" transform="translate(-2 -26.46)"/><path class="a" d="M45.67,187.56a7.89,7.89,0,0,1,1.67-5.25,5.58,5.58,0,0,1,4.46-2,5.51,5.51,0,0,1,4.45,2,7.88,7.88,0,0,1,1.65,5.25,7.75,7.75,0,0,1-1.69,5.2,5.5,5.5,0,0,1-4.41,2,5.57,5.57,0,0,1-4.46-2A7.76,7.76,0,0,1,45.67,187.56Zm11,0a7,7,0,0,0-1.32-4.49,4.66,4.66,0,0,0-7.13,0,7,7,0,0,0-1.32,4.49A6.93,6.93,0,0,0,48.21,192a4.35,4.35,0,0,0,3.59,1.64A4.31,4.31,0,0,0,55.36,192,6.93,6.93,0,0,0,56.67,187.56Z" transform="translate(-2 -26.46)"/><path class="a" d="M61.09,187.56a7.84,7.84,0,0,1,1.68-5.25,5.57,5.57,0,0,1,4.46-2,5.49,5.49,0,0,1,4.44,2,7.88,7.88,0,0,1,1.65,5.25,7.79,7.79,0,0,1-1.68,5.2,5.5,5.5,0,0,1-4.41,2,5.58,5.58,0,0,1-4.47-2A7.82,7.82,0,0,1,61.09,187.56Zm11,0a7,7,0,0,0-1.32-4.49,4.65,4.65,0,0,0-7.12,0,8.25,8.25,0,0,0,0,9,4.38,4.38,0,0,0,3.6,1.64A4.32,4.32,0,0,0,70.79,192,6.93,6.93,0,0,0,72.09,187.56Z" transform="translate(-2 -26.46)"/><path class="a" d="M78.46,180.69l.21,2.44h0a6.25,6.25,0,0,1,2.29-2,6.52,6.52,0,0,1,3.06-.79h.38v1.16h-.38a6.27,6.27,0,0,0-5.35,3.18v9.7H77.53V180.69Z" transform="translate(-2 -26.46)"/><path class="a" d="M92.18,187.65a8.4,8.4,0,0,1,.94-4.24,5.71,5.71,0,0,1,2.38-2.35,6.57,6.57,0,0,1,3-.72,9.38,9.38,0,0,1,2,.21,6,6,0,0,1,1.58.57v1.2a7.78,7.78,0,0,0-1.75-.66,8,8,0,0,0-1.87-.25A5.1,5.1,0,0,0,96,182a4.72,4.72,0,0,0-1.88,2,7.82,7.82,0,0,0-.73,3.62A6.31,6.31,0,0,0,94.84,192a4.92,4.92,0,0,0,3.87,1.62,9.35,9.35,0,0,0,3.57-.84v1.1a8,8,0,0,1-3.66.82,6.91,6.91,0,0,1-3.26-.77A5.7,5.7,0,0,1,93,191.6,8.16,8.16,0,0,1,92.18,187.65Z" transform="translate(-2 -26.46)"/><path class="a" d="M107.44,173.17v8.18l-.06,1.57h.06a5.53,5.53,0,0,1,4.58-2.58,4,4,0,0,1,3.33,1.33,5.78,5.78,0,0,1,1.05,3.68v9h-1.15v-9.13a4.48,4.48,0,0,0-.8-2.82,3,3,0,0,0-2.48-1q-2.62,0-4.53,2.86v10.11h-1.17V173.17Z" transform="translate(-2 -26.46)"/><path class="a" d="M120.46,187.56a7.84,7.84,0,0,1,1.68-5.25,5.57,5.57,0,0,1,4.46-2,5.49,5.49,0,0,1,4.44,2,7.88,7.88,0,0,1,1.65,5.25,7.79,7.79,0,0,1-1.68,5.2,5.5,5.5,0,0,1-4.41,2,5.58,5.58,0,0,1-4.47-2A7.82,7.82,0,0,1,120.46,187.56Zm11,0a7,7,0,0,0-1.32-4.49,4.65,4.65,0,0,0-7.12,0,8.25,8.25,0,0,0,0,9,4.38,4.38,0,0,0,3.6,1.64,4.32,4.32,0,0,0,3.56-1.64A6.93,6.93,0,0,0,131.46,187.56Z" transform="translate(-2 -26.46)"/><path class="a" d="M136.81,176.08h1.35v1.41h-1.35Zm.09,4.61h1.17v13.69H136.9Z" transform="translate(-2 -26.46)"/><path class="a" d="M142.27,187.65a8.4,8.4,0,0,1,.95-4.24,5.71,5.71,0,0,1,2.38-2.35,6.57,6.57,0,0,1,3-.72,9.45,9.45,0,0,1,2,.21,6.12,6.12,0,0,1,1.58.57v1.2a8.27,8.27,0,0,0-3.62-.91,5,5,0,0,0-2.42.62,4.66,4.66,0,0,0-1.88,2,7.82,7.82,0,0,0-.74,3.62,6.32,6.32,0,0,0,1.44,4.36,4.92,4.92,0,0,0,3.87,1.62,9.35,9.35,0,0,0,3.57-.84v1.1a8,8,0,0,1-3.66.82,6.91,6.91,0,0,1-3.26-.77,5.65,5.65,0,0,1-2.32-2.37A8.15,8.15,0,0,1,142.27,187.65Z" transform="translate(-2 -26.46)"/><path class="a" d="M155.35,187.39a8.73,8.73,0,0,1,.75-3.74,5.79,5.79,0,0,1,2.05-2.45,5.24,5.24,0,0,1,2.93-.86,5,5,0,0,1,3.84,1.58c1,1.05,1.43,2.7,1.43,5v.51h-9.77a6.75,6.75,0,0,0,1.43,4.75,5.2,5.2,0,0,0,4,1.52,9,9,0,0,0,3.87-.78V194a8,8,0,0,1-3.87.76,6.29,6.29,0,0,1-4.92-1.92A7.85,7.85,0,0,1,155.35,187.39Zm5.73-6a3.94,3.94,0,0,0-3.06,1.39,5.8,5.8,0,0,0-1.41,3.56h8.54a5.87,5.87,0,0,0-1.07-3.69A3.63,3.63,0,0,0,161.08,181.38Z" transform="translate(-2 -26.46)"/><path class="a" d="M169.8,194v-1.22a7.58,7.58,0,0,0,3.72.87,4.26,4.26,0,0,0,2.76-.82,2.74,2.74,0,0,0,1-2.27,2.18,2.18,0,0,0-.68-1.72,5.4,5.4,0,0,0-2.25-1,16.82,16.82,0,0,1-2.38-.73,3.73,3.73,0,0,1-1.5-1.11,3,3,0,0,1-.59-1.94,3.28,3.28,0,0,1,1.29-2.85,5.49,5.49,0,0,1,3.29-.93,7.63,7.63,0,0,1,3.42.78v1.14a9.87,9.87,0,0,0-1.65-.65,6.83,6.83,0,0,0-1.85-.23,4,4,0,0,0-2.52.69,2.36,2.36,0,0,0-.85,2,2.09,2.09,0,0,0,.4,1.37,2.49,2.49,0,0,0,1.11.75,20.54,20.54,0,0,0,2.12.62,6.55,6.55,0,0,1,2.88,1.34,3.13,3.13,0,0,1,.9,2.41,3.87,3.87,0,0,1-1.32,3.08,5.28,5.28,0,0,1-3.6,1.15A7.8,7.8,0,0,1,169.8,194Z" transform="translate(-2 -26.46)"/><path class="a" d="M205.06,180.69,201,194.38h-1.29l-3.81-12.69h-.09l-3.63,12.69h-1.29l-4.16-13.69H188l2.73,9.79.77,2.7h.06l3.58-12.49h1.56l2.84,9.73.78,2.76h.06l.48-1.63,3-10.86Z" transform="translate(-2 -26.46)"/><path class="a" d="M208.57,176.08h1.35v1.41h-1.35Zm.09,4.61h1.17v13.69h-1.17Z" transform="translate(-2 -26.46)"/><path class="a" d="M215.44,191.11v-9.3h-2.71v-1.12h2.71V177h1.17v3.66h4.19v1.12h-4.19v9a3.24,3.24,0,0,0,.62,2.24,2.55,2.55,0,0,0,1.93.65,5.6,5.6,0,0,0,1.86-.25v1a6.24,6.24,0,0,1-2.08.31,3.51,3.51,0,0,1-2.57-.91A3.63,3.63,0,0,1,215.44,191.11Z" transform="translate(-2 -26.46)"/><path class="a" d="M225.75,173.17v8.18l-.05,1.57h.05a5.53,5.53,0,0,1,4.59-2.58,4,4,0,0,1,3.32,1.33,5.72,5.72,0,0,1,1.06,3.68v9h-1.16v-9.13a4.48,4.48,0,0,0-.8-2.82,3,3,0,0,0-2.48-1q-2.62,0-4.53,2.86v10.11h-1.17V173.17Z" transform="translate(-2 -26.46)"/><path class="a" d="M244.55,194v-1.22a7.58,7.58,0,0,0,3.72.87,4.26,4.26,0,0,0,2.76-.82,2.74,2.74,0,0,0,1-2.27,2.18,2.18,0,0,0-.68-1.72,5.4,5.4,0,0,0-2.25-1,16.24,16.24,0,0,1-2.37-.73,3.7,3.7,0,0,1-1.51-1.11,3,3,0,0,1-.59-1.94,3.28,3.28,0,0,1,1.29-2.85,5.51,5.51,0,0,1,3.3-.93,7.62,7.62,0,0,1,3.41.78v1.14a9.87,9.87,0,0,0-1.65-.65,6.83,6.83,0,0,0-1.85-.23,3.91,3.91,0,0,0-2.51.69,2.34,2.34,0,0,0-.86,2,2.09,2.09,0,0,0,.4,1.37,2.49,2.49,0,0,0,1.11.75,20.54,20.54,0,0,0,2.12.62,6.55,6.55,0,0,1,2.88,1.34,3.13,3.13,0,0,1,.9,2.41,3.87,3.87,0,0,1-1.32,3.08,5.28,5.28,0,0,1-3.6,1.15A7.8,7.8,0,0,1,244.55,194Z" transform="translate(-2 -26.46)"/><path class="a" d="M256.21,187.39a8.73,8.73,0,0,1,.75-3.74A5.72,5.72,0,0,1,259,181.2a5.22,5.22,0,0,1,2.93-.86,4.92,4.92,0,0,1,3.83,1.58q1.44,1.58,1.44,5v.51h-9.77a6.74,6.74,0,0,0,1.42,4.75,5.22,5.22,0,0,0,4,1.52,9.1,9.1,0,0,0,3.87-.78V194a8,8,0,0,1-3.87.76,6.27,6.27,0,0,1-4.92-1.92A7.8,7.8,0,0,1,256.21,187.39Zm5.73-6a3.94,3.94,0,0,0-3.07,1.39,5.8,5.8,0,0,0-1.4,3.56H266a5.94,5.94,0,0,0-1.07-3.69A3.66,3.66,0,0,0,261.94,181.38Z" transform="translate(-2 -26.46)"/><path class="a" d="M270.93,180.69l3.57,9.79c.38,1,.7,1.91,1,2.75h.05l4.57-12.54h1.26l-5.2,13.69h-1.28l-5.19-13.69Z" transform="translate(-2 -26.46)"/><path class="a" d="M283.63,187.39a8.73,8.73,0,0,1,.75-3.74,5.79,5.79,0,0,1,2.05-2.45,5.22,5.22,0,0,1,2.93-.86,5,5,0,0,1,3.84,1.58q1.43,1.58,1.43,5v.51h-9.77a6.74,6.74,0,0,0,1.42,4.75,5.22,5.22,0,0,0,4,1.52,9.06,9.06,0,0,0,3.87-.78V194a8,8,0,0,1-3.87.76,6.27,6.27,0,0,1-4.92-1.92A7.85,7.85,0,0,1,283.63,187.39Zm5.73-6a3.94,3.94,0,0,0-3.06,1.39,5.8,5.8,0,0,0-1.41,3.56h8.54a5.94,5.94,0,0,0-1.07-3.69A3.63,3.63,0,0,0,289.36,181.38Z" transform="translate(-2 -26.46)"/><path class="a" d="M300.09,180.69l.21,2.44h0a6.25,6.25,0,0,1,2.29-2,6.52,6.52,0,0,1,3.06-.79h.38v1.16h-.38a6.27,6.27,0,0,0-5.35,3.18v9.7h-1.17V180.69Z" transform="translate(-2 -26.46)"/><path class="a" d="M308,187.39a8.73,8.73,0,0,1,.75-3.74,5.79,5.79,0,0,1,2.05-2.45,5.22,5.22,0,0,1,2.93-.86,5,5,0,0,1,3.84,1.58q1.43,1.58,1.43,5v.51h-9.77a6.79,6.79,0,0,0,1.42,4.75,5.22,5.22,0,0,0,4,1.52,9,9,0,0,0,3.87-.78V194a8,8,0,0,1-3.87.76,6.27,6.27,0,0,1-4.92-1.92A7.85,7.85,0,0,1,308,187.39Zm5.73-6a3.94,3.94,0,0,0-3.06,1.39,5.8,5.8,0,0,0-1.41,3.56h8.54a5.87,5.87,0,0,0-1.07-3.69A3.63,3.63,0,0,0,313.69,181.38Z" transform="translate(-2 -26.46)"/><path class="a" d="M329.25,176.08h1.34v1.41h-1.34Zm.08,4.61h1.17v13.69h-1.17Z" transform="translate(-2 -26.46)"/><path class="a" d="M336.66,180.69l.23,1.92h0a7.22,7.22,0,0,1,2-1.7,4.92,4.92,0,0,1,2.46-.57,4.63,4.63,0,0,1,2.83.81,3.93,3.93,0,0,1,1.46,2h.06a7.38,7.38,0,0,1,2.1-2.11,4.88,4.88,0,0,1,2.59-.68,4.38,4.38,0,0,1,3.43,1.3,5.19,5.19,0,0,1,1.18,3.64v9.1h-1.17v-8.82q0-4.16-3.53-4.15a4,4,0,0,0-2.44.77,7.88,7.88,0,0,0-1.91,2.21v10h-1.17v-9.25a3.82,3.82,0,0,0-.93-2.72,3.42,3.42,0,0,0-2.65-1,4.33,4.33,0,0,0-2.33.63,8.52,8.52,0,0,0-2,1.83v10.51h-1.17V180.69Z" transform="translate(-2 -26.46)"/><path class="a" d="M360.89,180.69l.36,1.6h0a5.26,5.26,0,0,1,1.9-1.4,5.62,5.62,0,0,1,2.33-.55,5.33,5.33,0,0,1,4.39,1.86,8,8,0,0,1,1.52,5.22,8.65,8.65,0,0,1-1,4.53,5.24,5.24,0,0,1-2.32,2.21,6.38,6.38,0,0,1-2.59.58,5.56,5.56,0,0,1-4.26-1.68h0l0,2.66v5.47h-1.17v-20.5Zm9.3,6.76A7.13,7.13,0,0,0,369,183a4.13,4.13,0,0,0-3.45-1.58,5,5,0,0,0-2.46.65,4.94,4.94,0,0,0-1.8,1.64v8.16a6.91,6.91,0,0,0,2,1.37,5.54,5.54,0,0,0,2.25.43,4.93,4.93,0,0,0,3.2-1.23Q370.19,191.22,370.19,187.45Z" transform="translate(-2 -26.46)"/><path class="a" d="M374.54,190.45a3.77,3.77,0,0,1,1.32-3,5.09,5.09,0,0,1,3.42-1.15,12.37,12.37,0,0,1,4.21.81v-1.76a4,4,0,0,0-1-2.94,4.45,4.45,0,0,0-3.23-1,11.46,11.46,0,0,0-3.51.69V181a4.89,4.89,0,0,1,1.47-.46,11,11,0,0,1,2-.2,5.81,5.81,0,0,1,4.08,1.25,4.9,4.9,0,0,1,1.33,3.76V190q0,1.44.12,4.38h-1.06l-.2-1.6h-.06a5.68,5.68,0,0,1-2,1.38,6,6,0,0,1-2.51.58,4.7,4.7,0,0,1-3.23-1.07A4.05,4.05,0,0,1,374.54,190.45Zm8.95,1.1v-3.41a11.61,11.61,0,0,0-2-.58,12.5,12.5,0,0,0-2.38-.17,3.59,3.59,0,0,0-2.5.8,2.85,2.85,0,0,0-.9,2.26,3.13,3.13,0,0,0,.89,2.44,3.42,3.42,0,0,0,2.36.8,5.07,5.07,0,0,0,2.65-.63A7.79,7.79,0,0,0,383.49,191.55Z" transform="translate(-2 -26.46)"/><path class="a" d="M388.86,187.65a8.4,8.4,0,0,1,.95-4.24,5.71,5.71,0,0,1,2.38-2.35,6.57,6.57,0,0,1,3-.72,9.38,9.38,0,0,1,2,.21,6.12,6.12,0,0,1,1.58.57v1.2a8.27,8.27,0,0,0-3.62-.91,5.07,5.07,0,0,0-2.42.62,4.72,4.72,0,0,0-1.88,2,7.82,7.82,0,0,0-.74,3.62,6.32,6.32,0,0,0,1.44,4.36,4.92,4.92,0,0,0,3.87,1.62,9.35,9.35,0,0,0,3.57-.84v1.1a8,8,0,0,1-3.66.82,6.91,6.91,0,0,1-3.26-.77,5.65,5.65,0,0,1-2.32-2.37A8.15,8.15,0,0,1,388.86,187.65Z" transform="translate(-2 -26.46)"/><path class="a" d="M403.35,191.11v-9.3h-2.71v-1.12h2.71V177h1.17v3.66h4.19v1.12h-4.19v9a3.24,3.24,0,0,0,.62,2.24,2.55,2.55,0,0,0,1.93.65,5.6,5.6,0,0,0,1.86-.25v1a6.24,6.24,0,0,1-2.08.31,3.51,3.51,0,0,1-2.57-.91A3.63,3.63,0,0,1,403.35,191.11Z" transform="translate(-2 -26.46)"/><path class="a" d="M411.41,194v-1.22a7.58,7.58,0,0,0,3.72.87,4.26,4.26,0,0,0,2.76-.82,2.74,2.74,0,0,0,1-2.27,2.18,2.18,0,0,0-.68-1.72,5.34,5.34,0,0,0-2.25-1,16.24,16.24,0,0,1-2.37-.73,3.7,3.7,0,0,1-1.51-1.11,3,3,0,0,1-.59-1.94,3.28,3.28,0,0,1,1.29-2.85,5.51,5.51,0,0,1,3.3-.93,7.62,7.62,0,0,1,3.41.78v1.14a9.87,9.87,0,0,0-1.65-.65,6.83,6.83,0,0,0-1.85-.23,3.91,3.91,0,0,0-2.51.69,2.34,2.34,0,0,0-.86,2,2.09,2.09,0,0,0,.4,1.37,2.49,2.49,0,0,0,1.11.75,20.54,20.54,0,0,0,2.12.62,6.55,6.55,0,0,1,2.88,1.34,3.13,3.13,0,0,1,.9,2.41,3.87,3.87,0,0,1-1.32,3.08,5.28,5.28,0,0,1-3.6,1.15A7.8,7.8,0,0,1,411.41,194Z" transform="translate(-2 -26.46)"/><path class="a" d="M28.75,223.56a7.84,7.84,0,0,1,1.68-5.25,5.58,5.58,0,0,1,4.46-2,5.51,5.51,0,0,1,4.45,2A7.88,7.88,0,0,1,41,223.56a7.8,7.8,0,0,1-1.69,5.2,5.5,5.5,0,0,1-4.41,2,5.61,5.61,0,0,1-4.47-2A7.82,7.82,0,0,1,28.75,223.56Zm11,0a7,7,0,0,0-1.32-4.49,4.66,4.66,0,0,0-7.13,0A7,7,0,0,0,30,223.56,6.93,6.93,0,0,0,31.3,228a4.35,4.35,0,0,0,3.59,1.64A4.31,4.31,0,0,0,38.45,228,6.93,6.93,0,0,0,39.76,223.56Z" transform="translate(-2 -26.46)"/><path class="a" d="M46.13,216.69l.2,2.23h0a6.42,6.42,0,0,1,2-1.9,5.08,5.08,0,0,1,2.56-.68,4.1,4.1,0,0,1,3.27,1.28,5.52,5.52,0,0,1,1.11,3.73v9H54.17V221.5a4.94,4.94,0,0,0-.79-3.07,3.07,3.07,0,0,0-2.58-1,4.4,4.4,0,0,0-2.42.77,7,7,0,0,0-2,2.09v10.11H45.19V216.69Z" transform="translate(-2 -26.46)"/><path class="a" d="M66.64,227.11v-9.3H63.93v-1.12h2.71V213h1.17v3.66H72v1.12H67.81v9a3.25,3.25,0,0,0,.61,2.24,2.58,2.58,0,0,0,1.94.65,5.6,5.6,0,0,0,1.86-.25v1a6.28,6.28,0,0,1-2.08.31,3.49,3.49,0,0,1-2.57-.91A3.63,3.63,0,0,1,66.64,227.11Z" transform="translate(-2 -26.46)"/><path class="a" d="M77,209.17v8.18l-.06,1.57H77a5.53,5.53,0,0,1,4.58-2.58,4,4,0,0,1,3.33,1.33,5.78,5.78,0,0,1,1,3.68v9H84.76v-9.13a4.48,4.48,0,0,0-.8-2.82,3,3,0,0,0-2.49-1q-2.61,0-4.52,2.86v10.11H75.78V209.17Z" transform="translate(-2 -26.46)"/><path class="a" d="M90,223.39a8.73,8.73,0,0,1,.75-3.74,5.79,5.79,0,0,1,2-2.45,5.22,5.22,0,0,1,2.93-.86,5,5,0,0,1,3.84,1.58q1.42,1.58,1.43,5v.51H91.2a6.74,6.74,0,0,0,1.42,4.75,5.22,5.22,0,0,0,4,1.52,9,9,0,0,0,3.87-.78V230a8,8,0,0,1-3.87.76,6.27,6.27,0,0,1-4.92-1.92A7.85,7.85,0,0,1,90,223.39Zm5.73-6a3.94,3.94,0,0,0-3.06,1.39,5.8,5.8,0,0,0-1.41,3.56h8.54a5.94,5.94,0,0,0-1.07-3.69A3.63,3.63,0,0,0,95.7,217.38Z" transform="translate(-2 -26.46)"/><path class="a" d="M112.49,228.78h0l-.15,1.6h-1.06c.06-1.44.09-2.87.09-4.3V209.17h1.17v9.24h0a5.35,5.35,0,0,1,1.88-1.51,5.48,5.48,0,0,1,2.45-.56,5.3,5.3,0,0,1,4.3,1.81,8.18,8.18,0,0,1,1.51,5.36,8.94,8.94,0,0,1-.81,4,5.52,5.52,0,0,1-5.12,3.23,5,5,0,0,1-2.47-.55A7.19,7.19,0,0,1,112.49,228.78Zm9-5.27q0-6.1-4.56-6.1a5.47,5.47,0,0,0-4.38,2.26v7.82a6,6,0,0,0,1.64,1.49,4.63,4.63,0,0,0,2.54.68,4.17,4.17,0,0,0,3.48-1.66A7.17,7.17,0,0,0,121.45,223.51Z" transform="translate(-2 -26.46)"/><path class="a" d="M125.87,223.56a7.84,7.84,0,0,1,1.68-5.25,5.58,5.58,0,0,1,4.46-2,5.51,5.51,0,0,1,4.45,2,7.88,7.88,0,0,1,1.65,5.25,7.8,7.8,0,0,1-1.69,5.2,5.5,5.5,0,0,1-4.41,2,5.61,5.61,0,0,1-4.47-2A7.82,7.82,0,0,1,125.87,223.56Zm11,0a7,7,0,0,0-1.32-4.49,4.66,4.66,0,0,0-7.13,0,7,7,0,0,0-1.33,4.49,6.93,6.93,0,0,0,1.32,4.46,4.35,4.35,0,0,0,3.59,1.64,4.31,4.31,0,0,0,3.56-1.64A6.93,6.93,0,0,0,136.88,223.56Z" transform="translate(-2 -26.46)"/><path class="a" d="M141.3,223.62a8.19,8.19,0,0,1,1.61-5.31,5.29,5.29,0,0,1,4.32-2,5.9,5.9,0,0,1,2.44.47,4.58,4.58,0,0,1,1.79,1.48h.06l-.06-1.65v-7.47h1.18v18.51c0,1.13,0,2,.08,2.7h-.87l-.33-1.6h-.06a4.64,4.64,0,0,1-1.82,1.38,5.66,5.66,0,0,1-2.44.58,5.9,5.9,0,0,1-2.94-.75,5.48,5.48,0,0,1-2.15-2.35A8.88,8.88,0,0,1,141.3,223.62Zm10.16,3.67v-7.77a5.41,5.41,0,0,0-4.2-2.11,4.08,4.08,0,0,0-3.46,1.69,7.41,7.41,0,0,0-1.27,4.58,7,7,0,0,0,1.25,4.39,4.16,4.16,0,0,0,3.45,1.59,4.85,4.85,0,0,0,2.49-.67A4.52,4.52,0,0,0,151.46,227.29Z" transform="translate(-2 -26.46)"/><path class="a" d="M157.76,212.08h1.35v1.41h-1.35Zm.09,4.61H159v13.69h-1.17Z" transform="translate(-2 -26.46)"/><path class="a" d="M163.23,223.39a8.88,8.88,0,0,1,.74-3.74A5.81,5.81,0,0,1,166,217.2a5.19,5.19,0,0,1,2.93-.86,4.92,4.92,0,0,1,3.83,1.58q1.44,1.58,1.44,5v.51h-9.77a6.74,6.74,0,0,0,1.42,4.75,5.22,5.22,0,0,0,4,1.52,9.1,9.1,0,0,0,3.87-.78V230a8,8,0,0,1-3.87.76,6.27,6.27,0,0,1-4.92-1.92A7.8,7.8,0,0,1,163.23,223.39Zm5.73-6a3.94,3.94,0,0,0-3.07,1.39,5.74,5.74,0,0,0-1.4,3.56H173a5.94,5.94,0,0,0-1.07-3.69A3.66,3.66,0,0,0,169,217.38Z" transform="translate(-2 -26.46)"/><path class="a" d="M177.67,230v-1.22a7.63,7.63,0,0,0,3.72.87,4.26,4.26,0,0,0,2.76-.82,2.74,2.74,0,0,0,1-2.27,2.17,2.17,0,0,0-.67-1.72,5.39,5.39,0,0,0-2.26-1,16.24,16.24,0,0,1-2.37-.73,3.7,3.7,0,0,1-1.51-1.11,3,3,0,0,1-.59-1.94,3.28,3.28,0,0,1,1.29-2.85,5.51,5.51,0,0,1,3.3-.93,7.59,7.59,0,0,1,3.41.78v1.14a9.24,9.24,0,0,0-1.65-.65,6.83,6.83,0,0,0-1.85-.23,3.93,3.93,0,0,0-2.51.69,2.37,2.37,0,0,0-.86,2,2.15,2.15,0,0,0,.4,1.37,2.49,2.49,0,0,0,1.11.75,21.34,21.34,0,0,0,2.12.62,6.55,6.55,0,0,1,2.88,1.34,3.13,3.13,0,0,1,.9,2.41,3.89,3.89,0,0,1-1.31,3.08,5.29,5.29,0,0,1-3.61,1.15A7.8,7.8,0,0,1,177.67,230Z" transform="translate(-2 -26.46)"/><path class="a" d="M195.18,223.56a7.84,7.84,0,0,1,1.67-5.25,5.58,5.58,0,0,1,4.46-2,5.51,5.51,0,0,1,4.45,2,7.88,7.88,0,0,1,1.65,5.25,7.75,7.75,0,0,1-1.69,5.2,5.5,5.5,0,0,1-4.41,2,5.57,5.57,0,0,1-4.46-2A7.76,7.76,0,0,1,195.18,223.56Zm11,0a7,7,0,0,0-1.32-4.49,4.66,4.66,0,0,0-7.13,0,7,7,0,0,0-1.32,4.49,6.93,6.93,0,0,0,1.31,4.46,4.35,4.35,0,0,0,3.59,1.64,4.31,4.31,0,0,0,3.56-1.64A6.93,6.93,0,0,0,206.18,223.56Z" transform="translate(-2 -26.46)"/><path class="a" d="M209.69,217.81v-1.12h2.49v-2.51a5.41,5.41,0,0,1,1.37-4.07,5,5,0,0,1,3.58-1.31,9.56,9.56,0,0,1,1.66.13V210a9.49,9.49,0,0,0-1.57-.15,3.72,3.72,0,0,0-2.89,1.06,4.87,4.87,0,0,0-1,3.38v2.37h4.36v1.12h-4.36v12.57h-1.17V217.81Z" transform="translate(-2 -26.46)"/><path class="a" d="M243.47,216.69l-4.09,13.69H238.1l-3.81-12.69h-.09l-3.63,12.69h-1.29l-4.16-13.69h1.26l2.72,9.79.78,2.7h.06l3.57-12.49h1.57l2.84,9.73.78,2.76h.05l.49-1.63,3-10.86Z" transform="translate(-2 -26.46)"/><path class="a" d="M246,226.45a3.75,3.75,0,0,1,1.33-3,5.05,5.05,0,0,1,3.42-1.15,12.27,12.27,0,0,1,4.2.81v-1.76a4,4,0,0,0-1-2.94,4.42,4.42,0,0,0-3.22-1,11.46,11.46,0,0,0-3.52.69V217a5.07,5.07,0,0,1,1.48-.46,10.85,10.85,0,0,1,2-.2,5.8,5.8,0,0,1,4.07,1.25,4.9,4.9,0,0,1,1.33,3.76V226q0,1.44.12,4.38h-1.05l-.21-1.6h-.06a5.68,5.68,0,0,1-2,1.38,6,6,0,0,1-2.51.58,4.72,4.72,0,0,1-3.23-1.07A4.05,4.05,0,0,1,246,226.45Zm8.95,1.1v-3.41a11.61,11.61,0,0,0-2-.58,12.43,12.43,0,0,0-2.38-.17,3.61,3.61,0,0,0-2.5.8,2.85,2.85,0,0,0-.9,2.26,3.1,3.1,0,0,0,.9,2.44,3.4,3.4,0,0,0,2.35.8,5.13,5.13,0,0,0,2.66-.63A7.94,7.94,0,0,0,254.94,227.55Z" transform="translate(-2 -26.46)"/><path class="a" d="M261.72,227.11v-9.3H259v-1.12h2.71V213h1.18v3.66h4.18v1.12H262.9v9a3.25,3.25,0,0,0,.61,2.24,2.57,2.57,0,0,0,1.93.65,5.52,5.52,0,0,0,1.86-.25v1a6.2,6.2,0,0,1-2.08.31,3.51,3.51,0,0,1-2.57-.91A3.63,3.63,0,0,1,261.72,227.11Z" transform="translate(-2 -26.46)"/><path class="a" d="M269.85,223.39a8.73,8.73,0,0,1,.75-3.74,5.79,5.79,0,0,1,2-2.45,5.24,5.24,0,0,1,2.93-.86,5,5,0,0,1,3.84,1.58c1,1.05,1.43,2.7,1.43,5v.51h-9.77a6.79,6.79,0,0,0,1.42,4.75,5.24,5.24,0,0,0,4,1.52,9,9,0,0,0,3.87-.78V230a8,8,0,0,1-3.87.76,6.29,6.29,0,0,1-4.92-1.92A7.85,7.85,0,0,1,269.85,223.39Zm5.73-6a3.94,3.94,0,0,0-3.06,1.39,5.8,5.8,0,0,0-1.41,3.56h8.54a5.87,5.87,0,0,0-1.07-3.69A3.63,3.63,0,0,0,275.58,217.38Z" transform="translate(-2 -26.46)"/><path class="a" d="M286.32,216.69l.2,2.44h0a6.21,6.21,0,0,1,2.3-2,6.48,6.48,0,0,1,3-.79h.38v1.16h-.38a6,6,0,0,0-3.1.88,5.91,5.91,0,0,0-2.25,2.3v9.7h-1.17V216.69Z" transform="translate(-2 -26.46)"/><path class="a" d="M300,226.45a3.77,3.77,0,0,1,1.32-3,5.09,5.09,0,0,1,3.42-1.15,12.37,12.37,0,0,1,4.21.81v-1.76a4,4,0,0,0-1-2.94,4.45,4.45,0,0,0-3.23-1,11.41,11.41,0,0,0-3.51.69V217a4.89,4.89,0,0,1,1.47-.46,11,11,0,0,1,2-.2,5.81,5.81,0,0,1,4.08,1.25,4.93,4.93,0,0,1,1.33,3.76V226q0,1.44.12,4.38h-1.06l-.2-1.6h-.06a5.73,5.73,0,0,1-2,1.38,6,6,0,0,1-2.5.58,4.68,4.68,0,0,1-3.23-1.07A4,4,0,0,1,300,226.45Zm9,1.1v-3.41a11.88,11.88,0,0,0-2-.58,12.57,12.57,0,0,0-2.38-.17,3.59,3.59,0,0,0-2.5.8,2.85,2.85,0,0,0-.9,2.26,3.13,3.13,0,0,0,.89,2.44,3.42,3.42,0,0,0,2.36.8,5.1,5.1,0,0,0,2.65-.63A8,8,0,0,0,308.91,227.55Z" transform="translate(-2 -26.46)"/><path class="a" d="M316.23,216.69l.21,2.44h0a6.29,6.29,0,0,1,2.3-2,6.51,6.51,0,0,1,3.05-.79h.38v1.16h-.38a6,6,0,0,0-3.1.88,5.91,5.91,0,0,0-2.25,2.3v9.7h-1.17V216.69Z" transform="translate(-2 -26.46)"/><path class="a" d="M324.1,223.56a7.89,7.89,0,0,1,1.67-5.25,5.58,5.58,0,0,1,4.46-2,5.51,5.51,0,0,1,4.45,2,7.88,7.88,0,0,1,1.65,5.25,7.75,7.75,0,0,1-1.69,5.2,5.5,5.5,0,0,1-4.41,2,5.57,5.57,0,0,1-4.46-2A7.76,7.76,0,0,1,324.1,223.56Zm11,0a7,7,0,0,0-1.32-4.49,4.66,4.66,0,0,0-7.13,0,7,7,0,0,0-1.32,4.49,6.93,6.93,0,0,0,1.31,4.46,4.35,4.35,0,0,0,3.59,1.64,4.31,4.31,0,0,0,3.56-1.64A6.93,6.93,0,0,0,335.1,223.56Z" transform="translate(-2 -26.46)"/><path class="a" d="M340.24,225.13v-8.44h1.17v8.74a4.29,4.29,0,0,0,1,3.24,4,4,0,0,0,2.85,1,4.42,4.42,0,0,0,2.16-.48,3.17,3.17,0,0,0,1.3-1.34,5.56,5.56,0,0,0,.43-2.47v-8.68h1.18v8.47a8.79,8.79,0,0,1-.3,2.58,4,4,0,0,1-1,1.65,4.19,4.19,0,0,1-1.63,1,6.16,6.16,0,0,1-2.09.32,6.23,6.23,0,0,1-2.24-.37,4.56,4.56,0,0,1-1.64-1,4.18,4.18,0,0,1-.95-1.56A8.83,8.83,0,0,1,340.24,225.13Z" transform="translate(-2 -26.46)"/><path class="a" d="M356.24,216.69l.2,2.23h0a6.42,6.42,0,0,1,2-1.9,5,5,0,0,1,2.55-.68,4.11,4.11,0,0,1,3.28,1.28,5.52,5.52,0,0,1,1.1,3.73v9h-1.15V221.5a5,5,0,0,0-.79-3.07,3.07,3.07,0,0,0-2.58-1,4.38,4.38,0,0,0-2.42.77,7,7,0,0,0-2,2.09v10.11H355.3V216.69Z" transform="translate(-2 -26.46)"/><path class="a" d="M369.49,223.62a8.19,8.19,0,0,1,1.61-5.31,5.32,5.32,0,0,1,4.32-2,5.9,5.9,0,0,1,2.44.47,4.68,4.68,0,0,1,1.8,1.48h.06l-.06-1.65v-7.47h1.17v18.51q0,1.69.09,2.7H380l-.32-1.6h-.06a4.68,4.68,0,0,1-1.83,1.38,5.62,5.62,0,0,1-2.43.58,5.91,5.91,0,0,1-2.95-.75,5.46,5.46,0,0,1-2.14-2.35A8.75,8.75,0,0,1,369.49,223.62Zm10.17,3.67v-7.77a5.41,5.41,0,0,0-4.21-2.11A4.08,4.08,0,0,0,372,219.1a7.41,7.41,0,0,0-1.27,4.58,6.89,6.89,0,0,0,1.26,4.39,4.13,4.13,0,0,0,3.44,1.59,4.91,4.91,0,0,0,2.5-.67A4.52,4.52,0,0,0,379.66,227.29Z" transform="translate(-2 -26.46)"/><path class="a" d="M391.6,225.13v-8.44h1.17v8.74a4.29,4.29,0,0,0,1.05,3.24,4,4,0,0,0,2.85,1,4.48,4.48,0,0,0,2.16-.48,3.17,3.17,0,0,0,1.3-1.34,5.56,5.56,0,0,0,.43-2.47v-8.68h1.17v8.47a8.84,8.84,0,0,1-.29,2.58,4,4,0,0,1-1,1.65,4.15,4.15,0,0,1-1.62,1,7,7,0,0,1-4.34,0,4.52,4.52,0,0,1-1.63-1,4.06,4.06,0,0,1-1-1.56A8.83,8.83,0,0,1,391.6,225.13Z" transform="translate(-2 -26.46)"/><path class="a" d="M405.57,230v-1.22a7.63,7.63,0,0,0,3.72.87,4.26,4.26,0,0,0,2.76-.82,2.74,2.74,0,0,0,1-2.27,2.17,2.17,0,0,0-.67-1.72,5.39,5.39,0,0,0-2.26-1,16.24,16.24,0,0,1-2.37-.73,3.7,3.7,0,0,1-1.51-1.11,3,3,0,0,1-.59-1.94,3.28,3.28,0,0,1,1.29-2.85,5.51,5.51,0,0,1,3.3-.93,7.59,7.59,0,0,1,3.41.78v1.14a9.24,9.24,0,0,0-1.65-.65,6.83,6.83,0,0,0-1.85-.23,3.93,3.93,0,0,0-2.51.69,2.37,2.37,0,0,0-.86,2,2.15,2.15,0,0,0,.4,1.37,2.49,2.49,0,0,0,1.11.75,21.34,21.34,0,0,0,2.12.62,6.55,6.55,0,0,1,2.88,1.34,3.13,3.13,0,0,1,.9,2.41,3.89,3.89,0,0,1-1.31,3.08,5.29,5.29,0,0,1-3.61,1.15A7.8,7.8,0,0,1,405.57,230Z" transform="translate(-2 -26.46)"/><path class="a" d="M418.33,230.38v-1.89h1.8v1.89Z" transform="translate(-2 -26.46)"/><path class="a" d="M28.67,274.79a26.78,26.78,0,0,1,3.83.21,6.69,6.69,0,0,1,2.46.88,4.32,4.32,0,0,1,1.6,1.61,4.73,4.73,0,0,1,.49,2.25,4.25,4.25,0,0,1-3.69,4.5v.06a4.65,4.65,0,0,1,3.33,1.24,4.45,4.45,0,0,1,1.2,3.31,5.13,5.13,0,0,1-.87,2.88,5.37,5.37,0,0,1-2.33,2,12.11,12.11,0,0,1-4.67.66h-4.5V274.79Zm6.93,5a3.6,3.6,0,0,0-.59-2.17,3.54,3.54,0,0,0-1.82-1.25,13.22,13.22,0,0,0-3.92-.42H26.81v7.8h4a6.51,6.51,0,0,0,2.68-.47,3.3,3.3,0,0,0,1.56-1.36A4.15,4.15,0,0,0,35.6,279.8Zm.85,9.05a4.17,4.17,0,0,0-.72-2.51,3.66,3.66,0,0,0-2.49-1.27,19.44,19.44,0,0,0-2.37-.11H26.81v8.24h3.4a12.49,12.49,0,0,0,3.53-.42,3.41,3.41,0,0,0,2.06-1.52A4.54,4.54,0,0,0,36.45,288.85Z" transform="translate(-2 -26.46)"/><path class="a" d="M41.49,287.39a8.73,8.73,0,0,1,.75-3.74,5.79,5.79,0,0,1,2-2.45,5.24,5.24,0,0,1,2.93-.86,5,5,0,0,1,3.84,1.58q1.42,1.57,1.43,5v.51H42.72a6.79,6.79,0,0,0,1.42,4.75,5.22,5.22,0,0,0,4,1.52,9,9,0,0,0,3.87-.78V294a8,8,0,0,1-3.87.76,6.27,6.27,0,0,1-4.92-1.92A7.85,7.85,0,0,1,41.49,287.39Zm5.73-6a3.94,3.94,0,0,0-3.06,1.39,5.8,5.8,0,0,0-1.41,3.56h8.54a5.87,5.87,0,0,0-1.07-3.69A3.63,3.63,0,0,0,47.22,281.38Z" transform="translate(-2 -26.46)"/><path class="a" d="M56,287.65a8.4,8.4,0,0,1,.94-4.24,5.77,5.77,0,0,1,2.38-2.35,6.58,6.58,0,0,1,3-.72,9.36,9.36,0,0,1,2,.21,5.73,5.73,0,0,1,1.59.57v1.2a8.17,8.17,0,0,0-1.75-.66,7.53,7.53,0,0,0-1.87-.25,5.1,5.1,0,0,0-2.43.62,4.78,4.78,0,0,0-1.88,2,7.82,7.82,0,0,0-.73,3.62A6.36,6.36,0,0,0,58.67,292a4.92,4.92,0,0,0,3.87,1.62,9.35,9.35,0,0,0,3.58-.84v1.1a8.08,8.08,0,0,1-3.67.82,6.94,6.94,0,0,1-3.26-.77,5.7,5.7,0,0,1-2.32-2.37A8.27,8.27,0,0,1,56,287.65Z" transform="translate(-2 -26.46)"/><path class="a" d="M69.09,287.56a7.84,7.84,0,0,1,1.68-5.25,6,6,0,0,1,8.9,0,7.93,7.93,0,0,1,1.65,5.26,7.79,7.79,0,0,1-1.68,5.2,6,6,0,0,1-8.88,0A7.82,7.82,0,0,1,69.09,287.56Zm11,0a7,7,0,0,0-1.32-4.49,4.65,4.65,0,0,0-7.12,0,8.25,8.25,0,0,0,0,8.95,4.73,4.73,0,0,0,7.16,0A6.93,6.93,0,0,0,80.09,287.56Z" transform="translate(-2 -26.46)"/><path class="a" d="M86.46,280.69l.24,1.92h0a7.2,7.2,0,0,1,2-1.7,5,5,0,0,1,2.46-.57,4.59,4.59,0,0,1,2.83.81,4,4,0,0,1,1.47,2h.06a7.38,7.38,0,0,1,2.1-2.11,4.84,4.84,0,0,1,2.58-.68,4.4,4.4,0,0,1,3.44,1.3,5.24,5.24,0,0,1,1.18,3.64v9.1h-1.17v-8.82q0-4.15-3.54-4.15a3.92,3.92,0,0,0-2.43.77,8.06,8.06,0,0,0-1.92,2.21v10H94.59v-9.25a3.82,3.82,0,0,0-.93-2.72,3.42,3.42,0,0,0-2.64-1,4.3,4.3,0,0,0-2.33.63,8.33,8.33,0,0,0-2,1.83v10.51H85.52V280.69Z" transform="translate(-2 -26.46)"/><path class="a" d="M108.87,287.39a8.73,8.73,0,0,1,.75-3.74,5.79,5.79,0,0,1,2-2.45,5.24,5.24,0,0,1,2.93-.86,5,5,0,0,1,3.84,1.58q1.44,1.57,1.44,5v.51H110.1a6.75,6.75,0,0,0,1.43,4.75,5.2,5.2,0,0,0,4,1.52,9,9,0,0,0,3.87-.78V294a8,8,0,0,1-3.87.76,6.3,6.3,0,0,1-4.92-1.92A7.85,7.85,0,0,1,108.87,287.39Zm5.73-6a3.94,3.94,0,0,0-3.06,1.39,5.8,5.8,0,0,0-1.41,3.56h8.54a5.81,5.81,0,0,0-1.07-3.69A3.63,3.63,0,0,0,114.6,281.38Z" transform="translate(-2 -26.46)"/><path class="a" d="M129.16,290.45a3.75,3.75,0,0,1,1.33-3,5,5,0,0,1,3.42-1.15,12.27,12.27,0,0,1,4.2.81v-1.76a3.91,3.91,0,0,0-1-2.94,4.42,4.42,0,0,0-3.22-1,11.46,11.46,0,0,0-3.52.69V281a5.07,5.07,0,0,1,1.48-.46,10.93,10.93,0,0,1,2-.2,5.78,5.78,0,0,1,4.07,1.25,4.9,4.9,0,0,1,1.33,3.76V290q0,1.44.12,4.38h-1.05l-.21-1.6h-.06a5.82,5.82,0,0,1-2,1.38,6,6,0,0,1-2.5.58,4.68,4.68,0,0,1-3.23-1.07A4,4,0,0,1,129.16,290.45Zm9,1.1v-3.41a11.61,11.61,0,0,0-2-.58,12.43,12.43,0,0,0-2.38-.17,3.63,3.63,0,0,0-2.5.8,2.85,2.85,0,0,0-.9,2.26,3.1,3.1,0,0,0,.9,2.44,3.41,3.41,0,0,0,2.36.8,5.12,5.12,0,0,0,2.65-.63A8,8,0,0,0,138.11,291.55Z" transform="translate(-2 -26.46)"/><path class="a" d="M161.24,280.69l-4.08,13.69h-1.29l-3.81-12.69H152l-3.63,12.69h-1.29l-4.16-13.69h1.26l2.72,9.79.78,2.69h.06l3.57-12.48h1.57l2.84,9.73.78,2.75h.06l.48-1.62,3-10.86Z" transform="translate(-2 -26.46)"/><path class="a" d="M163.76,290.45a3.75,3.75,0,0,1,1.33-3,5,5,0,0,1,3.42-1.15,12.27,12.27,0,0,1,4.2.81v-1.76a3.91,3.91,0,0,0-1-2.94,4.42,4.42,0,0,0-3.22-1,11.46,11.46,0,0,0-3.52.69V281a5.07,5.07,0,0,1,1.48-.46,10.93,10.93,0,0,1,2-.2,5.78,5.78,0,0,1,4.07,1.25,4.9,4.9,0,0,1,1.33,3.76V290q0,1.44.12,4.38H173l-.21-1.6h-.06a5.82,5.82,0,0,1-2,1.38,6,6,0,0,1-2.5.58,4.68,4.68,0,0,1-3.23-1.07A4,4,0,0,1,163.76,290.45Zm9,1.1v-3.41a11.61,11.61,0,0,0-2-.58,12.43,12.43,0,0,0-2.38-.17,3.61,3.61,0,0,0-2.5.8,2.85,2.85,0,0,0-.9,2.26,3.1,3.1,0,0,0,.9,2.44,3.41,3.41,0,0,0,2.36.8,5.12,5.12,0,0,0,2.65-.63A8,8,0,0,0,172.71,291.55Z" transform="translate(-2 -26.46)"/><path class="a" d="M180,280.69l.2,2.44h0a6.17,6.17,0,0,1,2.29-2,6.52,6.52,0,0,1,3.06-.79H186v1.16h-.38a6,6,0,0,0-3.1.88,5.84,5.84,0,0,0-2.25,2.3v9.7H179.1V280.69Z" transform="translate(-2 -26.46)"/><path class="a" d="M187.9,287.39a8.73,8.73,0,0,1,.75-3.74,5.79,5.79,0,0,1,2-2.45,5.24,5.24,0,0,1,2.93-.86,5,5,0,0,1,3.84,1.58c1,1.05,1.43,2.7,1.43,5v.51h-9.77a6.79,6.79,0,0,0,1.42,4.75,5.22,5.22,0,0,0,4,1.52,9,9,0,0,0,3.87-.78V294a8,8,0,0,1-3.87.76,6.27,6.27,0,0,1-4.92-1.92A7.85,7.85,0,0,1,187.9,287.39Zm5.73-6a3.94,3.94,0,0,0-3.06,1.39,5.8,5.8,0,0,0-1.41,3.56h8.54a5.87,5.87,0,0,0-1.07-3.69A3.63,3.63,0,0,0,193.63,281.38Z" transform="translate(-2 -26.46)"/><path class="a" d="M208.26,287.56a7.84,7.84,0,0,1,1.68-5.25,6,6,0,0,1,8.91,0,7.93,7.93,0,0,1,1.65,5.26,7.8,7.8,0,0,1-1.69,5.2,5.5,5.5,0,0,1-4.41,2,5.61,5.61,0,0,1-4.47-1.95A7.82,7.82,0,0,1,208.26,287.56Zm11,0a7,7,0,0,0-1.32-4.49,4.66,4.66,0,0,0-7.13,0,7,7,0,0,0-1.33,4.49,6.93,6.93,0,0,0,1.32,4.46,4.35,4.35,0,0,0,3.59,1.64A4.31,4.31,0,0,0,218,292,6.93,6.93,0,0,0,219.27,287.56Z" transform="translate(-2 -26.46)"/><path class="a" d="M222.78,281.81v-1.12h2.49v-2.52a5.4,5.4,0,0,1,1.37-4.06,5,5,0,0,1,3.58-1.31,9.56,9.56,0,0,1,1.66.13V274a9.49,9.49,0,0,0-1.57-.15,3.72,3.72,0,0,0-2.89,1.06,4.87,4.87,0,0,0-1,3.38v2.37h4.35v1.12h-4.35v12.57h-1.17V281.81Z" transform="translate(-2 -26.46)"/><path class="a" d="M241,273.16v8.19l-.06,1.57H241a5.53,5.53,0,0,1,4.58-2.58,4,4,0,0,1,3.33,1.33,5.78,5.78,0,0,1,1,3.68v9H248.8v-9.13a4.48,4.48,0,0,0-.8-2.82,3,3,0,0,0-2.48-1q-2.62,0-4.53,2.86v10.11h-1.17V273.16Z" transform="translate(-2 -26.46)"/><path class="a" d="M254,287.56a7.84,7.84,0,0,1,1.68-5.25,5.57,5.57,0,0,1,4.46-2,5.51,5.51,0,0,1,4.44,2,7.93,7.93,0,0,1,1.65,5.26,7.79,7.79,0,0,1-1.68,5.2,5.5,5.5,0,0,1-4.41,2,5.58,5.58,0,0,1-4.47-1.95A7.82,7.82,0,0,1,254,287.56Zm11,0a7,7,0,0,0-1.32-4.49,4.65,4.65,0,0,0-7.12,0,8.25,8.25,0,0,0,0,8.95,4.38,4.38,0,0,0,3.6,1.64,4.32,4.32,0,0,0,3.56-1.64A6.93,6.93,0,0,0,265,287.56Z" transform="translate(-2 -26.46)"/><path class="a" d="M287.19,280.69l-4.09,13.69h-1.29L278,281.69h-.09l-3.63,12.69H273l-4.16-13.69h1.26l2.72,9.79.78,2.69h.06l3.57-12.48h1.57l2.84,9.73.78,2.75h.05l.49-1.62,3-10.86Z" transform="translate(-2 -26.46)"/><path class="a" d="M296.64,274.79h1.29V293.2h9.93v1.18H296.64Z" transform="translate(-2 -26.46)"/><path class="a" d="M310.7,290.45a3.75,3.75,0,0,1,1.33-3,5,5,0,0,1,3.42-1.15,12.27,12.27,0,0,1,4.2.81v-1.76a4,4,0,0,0-1-2.94,4.42,4.42,0,0,0-3.22-1,11.46,11.46,0,0,0-3.52.69V281a5.07,5.07,0,0,1,1.48-.46,10.85,10.85,0,0,1,2-.2,5.8,5.8,0,0,1,4.07,1.25,4.9,4.9,0,0,1,1.33,3.76V290q0,1.44.12,4.38h-1.05l-.21-1.6h-.06a5.82,5.82,0,0,1-2,1.38,6,6,0,0,1-2.51.58,4.72,4.72,0,0,1-3.23-1.07A4.05,4.05,0,0,1,310.7,290.45Zm8.95,1.1v-3.41a11.61,11.61,0,0,0-2-.58,12.43,12.43,0,0,0-2.38-.17,3.61,3.61,0,0,0-2.5.8,2.85,2.85,0,0,0-.9,2.26,3.1,3.1,0,0,0,.9,2.44,3.4,3.4,0,0,0,2.35.8,5.13,5.13,0,0,0,2.66-.63A8.2,8.2,0,0,0,319.65,291.55Z" transform="translate(-2 -26.46)"/><path class="a" d="M336,280.69l-7.36,6.19,7.33,7.5h-1.55l-7.21-7.45h0v7.45H326V273.16h1.17v13.51h0l7.18-6Z" transform="translate(-2 -26.46)"/><path class="a" d="M337.7,287.39a8.73,8.73,0,0,1,.75-3.74,5.72,5.72,0,0,1,2.05-2.45,5.22,5.22,0,0,1,2.93-.86,4.92,4.92,0,0,1,3.83,1.58q1.44,1.57,1.44,5v.51h-9.77a6.74,6.74,0,0,0,1.42,4.75,5.22,5.22,0,0,0,4,1.52,9.1,9.1,0,0,0,3.87-.78V294a8,8,0,0,1-3.87.76,6.27,6.27,0,0,1-4.92-1.92A7.8,7.8,0,0,1,337.7,287.39Zm5.73-6a3.94,3.94,0,0,0-3.07,1.39,5.8,5.8,0,0,0-1.4,3.56h8.54a5.94,5.94,0,0,0-1.07-3.69A3.65,3.65,0,0,0,343.43,281.38Z" transform="translate(-2 -26.46)"/><path class="a" d="M359.07,274.79h11.16V276h-9.87v7.8h9v1.17h-9v8.27H370.8v1.18H359.07Z" transform="translate(-2 -26.46)"/><path class="a" d="M376.09,280.69l.21,2.44h0a6.09,6.09,0,0,1,2.29-2,6.51,6.51,0,0,1,3.05-.79h.38v1.16h-.38a6,6,0,0,0-3.1.88,5.75,5.75,0,0,0-2.24,2.3v9.7h-1.18V280.69Z" transform="translate(-2 -26.46)"/><path class="a" d="M384.88,276.08h1.35v1.41h-1.35Zm.09,4.61h1.17v13.69H385Z" transform="translate(-2 -26.46)"/><path class="a" d="M390.34,287.39a8.73,8.73,0,0,1,.75-3.74,5.79,5.79,0,0,1,2.05-2.45,5.24,5.24,0,0,1,2.93-.86,5,5,0,0,1,3.84,1.58q1.44,1.57,1.44,5v.51h-9.77a6.74,6.74,0,0,0,1.42,4.75,5.21,5.21,0,0,0,4,1.52,9,9,0,0,0,3.86-.78V294a8,8,0,0,1-3.86.76,6.31,6.31,0,0,1-4.93-1.92A7.85,7.85,0,0,1,390.34,287.39Zm5.73-6a3.94,3.94,0,0,0-3.06,1.39,5.8,5.8,0,0,0-1.41,3.56h8.54a5.87,5.87,0,0,0-1.06-3.69A3.67,3.67,0,0,0,396.07,281.38Z" transform="translate(-2 -26.46)"/><path class="a" d="M411.63,276.08H413v1.41h-1.35Zm.09,4.61h1.17v13.69h-1.17Z" transform="translate(-2 -26.46)"/><path class="a" d="M417,294v-1.22a7.58,7.58,0,0,0,3.72.87,4.26,4.26,0,0,0,2.76-.82,2.74,2.74,0,0,0,1-2.27,2.21,2.21,0,0,0-.67-1.72,5.33,5.33,0,0,0-2.26-1,16.24,16.24,0,0,1-2.37-.73,3.72,3.72,0,0,1-1.51-1.12,3,3,0,0,1-.59-1.93,3.28,3.28,0,0,1,1.29-2.85,5.51,5.51,0,0,1,3.3-.93,7.59,7.59,0,0,1,3.41.78v1.14a9.87,9.87,0,0,0-1.65-.65,6.83,6.83,0,0,0-1.85-.23,3.93,3.93,0,0,0-2.51.69,2.37,2.37,0,0,0-.86,1.95,2.11,2.11,0,0,0,.4,1.37,2.49,2.49,0,0,0,1.11.75,21.34,21.34,0,0,0,2.12.62,6.55,6.55,0,0,1,2.88,1.34,3.13,3.13,0,0,1,.9,2.41,3.87,3.87,0,0,1-1.32,3.08,5.28,5.28,0,0,1-3.6,1.15A7.8,7.8,0,0,1,417,294Z" transform="translate(-2 -26.46)"/><path class="a" d="M49.35,328.78h0l-.15,1.6H48.12c.06-1.44.09-2.87.09-4.3V309.16h1.17v9.25h0a5.31,5.31,0,0,1,1.87-1.51,5.51,5.51,0,0,1,2.45-.56A5.32,5.32,0,0,1,58,318.15a8.23,8.23,0,0,1,1.51,5.36,8.94,8.94,0,0,1-.82,4,5.52,5.52,0,0,1-5.12,3.23,4.89,4.89,0,0,1-2.46-.56A7.39,7.39,0,0,1,49.35,328.78Zm9-5.27q0-6.11-4.56-6.1a5.44,5.44,0,0,0-4.38,2.26v7.82A5.94,5.94,0,0,0,51,329a4.66,4.66,0,0,0,2.54.68A4.14,4.14,0,0,0,57,328,7.11,7.11,0,0,0,58.32,323.51Z" transform="translate(-2 -26.46)"/><path class="a" d="M62.74,323.39a8.73,8.73,0,0,1,.75-3.74,5.72,5.72,0,0,1,2.05-2.45,5.22,5.22,0,0,1,2.93-.86,4.92,4.92,0,0,1,3.83,1.58q1.44,1.57,1.44,5v.51H64a6.74,6.74,0,0,0,1.42,4.75,5.22,5.22,0,0,0,4,1.52,9.1,9.1,0,0,0,3.87-.78V330a8,8,0,0,1-3.87.76,6.27,6.27,0,0,1-4.92-1.92A7.85,7.85,0,0,1,62.74,323.39Zm5.73-6a3.94,3.94,0,0,0-3.06,1.39A5.8,5.8,0,0,0,64,322.33h8.54a5.94,5.94,0,0,0-1.07-3.69A3.63,3.63,0,0,0,68.47,317.38Z" transform="translate(-2 -26.46)"/><path class="a" d="M78.18,312.08h1.35v1.41H78.18Zm.09,4.61h1.17v13.69H78.27Z" transform="translate(-2 -26.46)"/><path class="a" d="M85.59,316.69l.21,2.23h0a6.39,6.39,0,0,1,2-1.9,5.08,5.08,0,0,1,2.56-.68,4.08,4.08,0,0,1,3.27,1.28,5.52,5.52,0,0,1,1.11,3.73v9H93.63V321.5a4.94,4.94,0,0,0-.79-3.07,3.06,3.06,0,0,0-2.58-1,4.35,4.35,0,0,0-2.41.77,6.85,6.85,0,0,0-2,2.09v10.11H84.65V316.69Z" transform="translate(-2 -26.46)"/><path class="a" d="M99.83,336.79V335.5a10.5,10.5,0,0,0,1.93.75,8.51,8.51,0,0,0,2.1.22q5.15,0,5.15-5.49v-2.07H109a5.24,5.24,0,0,1-1.8,1.31,5.55,5.55,0,0,1-2.41.52,5.32,5.32,0,0,1-4.33-1.9,7.91,7.91,0,0,1-1.57-5.22,8.06,8.06,0,0,1,1.63-5.34,5.65,5.65,0,0,1,4.56-1.94,4.5,4.5,0,0,1,2.4.6A6.66,6.66,0,0,1,109,318.2h.06l.18-1.51h.94V331a8.14,8.14,0,0,1-.73,3.72,4.7,4.7,0,0,1-2.14,2.11,8,8,0,0,1-3.54.7,12,12,0,0,1-2.31-.21A5.79,5.79,0,0,1,99.83,336.79Zm9.18-9.11v-8.16a5.29,5.29,0,0,0-4-2.11,4.37,4.37,0,0,0-3.63,1.65,8.64,8.64,0,0,0-.06,9,4.27,4.27,0,0,0,3.58,1.58,5,5,0,0,0,2.17-.53A6,6,0,0,0,109,327.68Z" transform="translate(-2 -26.46)"/><path class="a" d="M122.18,316.69l.24,1.92h0a7.2,7.2,0,0,1,2-1.7,5,5,0,0,1,2.46-.57,4.59,4.59,0,0,1,2.83.81,4,4,0,0,1,1.47,2h.06a7.38,7.38,0,0,1,2.1-2.11,4.84,4.84,0,0,1,2.58-.68,4.4,4.4,0,0,1,3.44,1.3,5.24,5.24,0,0,1,1.18,3.64v9.1h-1.17v-8.82q0-4.15-3.54-4.15a3.92,3.92,0,0,0-2.43.77,8.06,8.06,0,0,0-1.92,2.21v10h-1.17v-9.25a3.82,3.82,0,0,0-.93-2.72,3.42,3.42,0,0,0-2.64-1,4.3,4.3,0,0,0-2.33.63,8.33,8.33,0,0,0-2,1.83v10.51h-1.17V316.69Z" transform="translate(-2 -26.46)"/><path class="a" d="M145.52,312.08h1.35v1.41h-1.35Zm.09,4.61h1.17v13.69h-1.17Z" transform="translate(-2 -26.46)"/><path class="a" d="M150.91,330v-1.22a7.58,7.58,0,0,0,3.72.87,4.26,4.26,0,0,0,2.76-.82,2.74,2.74,0,0,0,1-2.27,2.18,2.18,0,0,0-.68-1.72,5.22,5.22,0,0,0-2.25-1,16.24,16.24,0,0,1-2.37-.73,3.72,3.72,0,0,1-1.51-1.12,3,3,0,0,1-.59-1.93,3.28,3.28,0,0,1,1.29-2.85,5.51,5.51,0,0,1,3.3-.93,7.62,7.62,0,0,1,3.41.78v1.14a9.87,9.87,0,0,0-1.65-.65,6.83,6.83,0,0,0-1.85-.23,3.91,3.91,0,0,0-2.51.69,2.34,2.34,0,0,0-.86,1.95,2.11,2.11,0,0,0,.4,1.37,2.49,2.49,0,0,0,1.11.75,20.54,20.54,0,0,0,2.12.62,6.55,6.55,0,0,1,2.88,1.34,3.13,3.13,0,0,1,.9,2.41,3.87,3.87,0,0,1-1.32,3.08,5.28,5.28,0,0,1-3.6,1.15A7.8,7.8,0,0,1,150.91,330Z" transform="translate(-2 -26.46)"/><path class="a" d="M164,327.11v-9.3h-2.71v-1.12H164V313h1.18v3.66h4.19v1.12h-4.19v9a3.25,3.25,0,0,0,.61,2.24,2.58,2.58,0,0,0,1.94.65,5.88,5.88,0,0,0,1.86-.25v1a6.28,6.28,0,0,1-2.08.31,3.52,3.52,0,0,1-2.58-.91A3.63,3.63,0,0,1,164,327.11Z" transform="translate(-2 -26.46)"/><path class="a" d="M174.05,316.69l.21,2.44h0a6.09,6.09,0,0,1,2.29-2,6.51,6.51,0,0,1,3-.79H180v1.16h-.38a6,6,0,0,0-3.09.88,5.71,5.71,0,0,0-2.25,2.3v9.7h-1.17V316.69Z" transform="translate(-2 -26.46)"/><path class="a" d="M181.92,323.39a8.73,8.73,0,0,1,.75-3.74,5.72,5.72,0,0,1,2.05-2.45,5.22,5.22,0,0,1,2.93-.86,4.92,4.92,0,0,1,3.83,1.58q1.44,1.57,1.44,5v.51h-9.77a6.74,6.74,0,0,0,1.42,4.75,5.22,5.22,0,0,0,4,1.52,9.1,9.1,0,0,0,3.87-.78V330a8,8,0,0,1-3.87.76,6.27,6.27,0,0,1-4.92-1.92A7.85,7.85,0,0,1,181.92,323.39Zm5.73-6a4,4,0,0,0-3.07,1.39,5.8,5.8,0,0,0-1.4,3.56h8.54a5.94,5.94,0,0,0-1.07-3.69A3.65,3.65,0,0,0,187.65,317.38Z" transform="translate(-2 -26.46)"/><path class="a" d="M196.36,326.45a3.75,3.75,0,0,1,1.33-3,5,5,0,0,1,3.42-1.15,12.27,12.27,0,0,1,4.2.81v-1.76a3.91,3.91,0,0,0-1-2.94,4.42,4.42,0,0,0-3.22-1,11.46,11.46,0,0,0-3.52.69V317a5.07,5.07,0,0,1,1.48-.46,10.93,10.93,0,0,1,2-.2,5.78,5.78,0,0,1,4.07,1.25,4.9,4.9,0,0,1,1.33,3.76V326q0,1.44.12,4.38h-1l-.21-1.6h-.06a5.82,5.82,0,0,1-2,1.38,6,6,0,0,1-2.5.58,4.68,4.68,0,0,1-3.23-1.07A4,4,0,0,1,196.36,326.45Zm8.95,1.1v-3.41a11.61,11.61,0,0,0-2-.58,12.43,12.43,0,0,0-2.38-.17,3.61,3.61,0,0,0-2.5.8,2.85,2.85,0,0,0-.9,2.26,3.1,3.1,0,0,0,.9,2.44,3.41,3.41,0,0,0,2.36.8,5.12,5.12,0,0,0,2.65-.63A8,8,0,0,0,205.31,327.55Z" transform="translate(-2 -26.46)"/><path class="a" d="M212.09,327.11v-9.3h-2.71v-1.12h2.71V313h1.18v3.66h4.19v1.12h-4.19v9a3.25,3.25,0,0,0,.61,2.24,2.58,2.58,0,0,0,1.94.65,5.88,5.88,0,0,0,1.86-.25v1a6.28,6.28,0,0,1-2.08.31,3.53,3.53,0,0,1-2.58-.91A3.63,3.63,0,0,1,212.09,327.11Z" transform="translate(-2 -26.46)"/><path class="a" d="M220.22,323.39a8.73,8.73,0,0,1,.75-3.74A5.79,5.79,0,0,1,223,317.2a5.24,5.24,0,0,1,2.93-.86,5,5,0,0,1,3.84,1.58q1.44,1.57,1.44,5v.51h-9.77a6.74,6.74,0,0,0,1.42,4.75,5.21,5.21,0,0,0,4,1.52,9,9,0,0,0,3.86-.78V330a8,8,0,0,1-3.86.76,6.31,6.31,0,0,1-4.93-1.92A7.85,7.85,0,0,1,220.22,323.39Zm5.73-6a3.94,3.94,0,0,0-3.06,1.39,5.8,5.8,0,0,0-1.41,3.56H230a5.87,5.87,0,0,0-1.06-3.69A3.67,3.67,0,0,0,226,317.38Z" transform="translate(-2 -26.46)"/><path class="a" d="M234.74,323.62a8.19,8.19,0,0,1,1.61-5.31,5.32,5.32,0,0,1,4.32-2,5.9,5.9,0,0,1,2.44.47,4.68,4.68,0,0,1,1.8,1.48H245l-.06-1.65v-7.48h1.17v18.52q0,1.69.09,2.7h-.88l-.32-1.6h-.06a4.78,4.78,0,0,1-1.83,1.38,5.63,5.63,0,0,1-2.44.58,5.9,5.9,0,0,1-2.94-.75,5.54,5.54,0,0,1-2.15-2.35A8.88,8.88,0,0,1,234.74,323.62Zm10.17,3.66v-7.76a5.4,5.4,0,0,0-4.21-2.11,4.08,4.08,0,0,0-3.46,1.69,7.41,7.41,0,0,0-1.27,4.58,7,7,0,0,0,1.25,4.39,4.16,4.16,0,0,0,3.45,1.59,4.85,4.85,0,0,0,2.49-.67A4.43,4.43,0,0,0,244.91,327.28Z" transform="translate(-2 -26.46)"/><path class="a" d="M258.28,328.78h0l-.14,1.6h-1.06c.06-1.44.09-2.87.09-4.3V309.16h1.17v9.25h0a5.31,5.31,0,0,1,1.87-1.51,5.51,5.51,0,0,1,2.45-.56,5.32,5.32,0,0,1,4.31,1.81,8.23,8.23,0,0,1,1.51,5.36,8.8,8.8,0,0,1-.82,4,5.52,5.52,0,0,1-5.12,3.23,4.89,4.89,0,0,1-2.46-.56A7.39,7.39,0,0,1,258.28,328.78Zm9-5.27q0-6.11-4.56-6.1a5.44,5.44,0,0,0-4.38,2.26v7.82a5.94,5.94,0,0,0,1.63,1.49,4.67,4.67,0,0,0,2.55.68A4.14,4.14,0,0,0,266,328,7.11,7.11,0,0,0,267.25,323.51Z" transform="translate(-2 -26.46)"/><path class="a" d="M270.76,316.69H272q4.16,11.19,4.63,12.43h.12l4.79-12.43h1.26l-8.28,20.5h-1.26l2.74-6.7Z" transform="translate(-2 -26.46)"/><path class="a" d="M292.37,327.11v-9.3h-2.71v-1.12h2.71V313h1.17v3.66h4.19v1.12h-4.19v9a3.24,3.24,0,0,0,.62,2.24,2.55,2.55,0,0,0,1.93.65,5.88,5.88,0,0,0,1.86-.25v1a6.28,6.28,0,0,1-2.08.31,3.51,3.51,0,0,1-2.57-.91A3.63,3.63,0,0,1,292.37,327.11Z" transform="translate(-2 -26.46)"/><path class="a" d="M302.45,316.69l.2,2.44h0a6.17,6.17,0,0,1,2.29-2,6.52,6.52,0,0,1,3.06-.79h.38v1.16H308a6,6,0,0,0-3.1.88,5.84,5.84,0,0,0-2.25,2.3v9.7h-1.17V316.69Z" transform="translate(-2 -26.46)"/><path class="a" d="M309.4,316.69h1.26q4.15,11.19,4.63,12.43h.12l4.79-12.43h1.26l-8.28,20.5h-1.26l2.74-6.7Z" transform="translate(-2 -26.46)"/><path class="a" d="M324.68,312.08H326v1.41h-1.35Zm.09,4.61h1.17v13.69h-1.17Z" transform="translate(-2 -26.46)"/><path class="a" d="M332.09,316.69l.21,2.23h0a6.42,6.42,0,0,1,2-1.9,5,5,0,0,1,2.55-.68,4.11,4.11,0,0,1,3.28,1.28,5.57,5.57,0,0,1,1.1,3.73v9h-1.15V321.5a5,5,0,0,0-.79-3.07,3.07,3.07,0,0,0-2.58-1,4.38,4.38,0,0,0-2.42.77,7,7,0,0,0-2,2.09v10.11h-1.17V316.69Z" transform="translate(-2 -26.46)"/><path class="a" d="M346.33,336.79V335.5a10.57,10.57,0,0,0,1.94.75,8.37,8.37,0,0,0,2.09.22q5.16,0,5.16-5.49v-2.07h-.06a5.3,5.3,0,0,1-1.79,1.31,5.59,5.59,0,0,1-2.42.52,5.3,5.3,0,0,1-4.32-1.9,7.92,7.92,0,0,1-1.58-5.22,8.06,8.06,0,0,1,1.64-5.34,5.62,5.62,0,0,1,4.56-1.94,4.46,4.46,0,0,1,2.39.6,6.73,6.73,0,0,1,1.58,1.26h.06l.17-1.51h.94V331a8,8,0,0,1-.73,3.72,4.68,4.68,0,0,1-2.13,2.11,8.09,8.09,0,0,1-3.54.7,12.13,12.13,0,0,1-2.32-.21A5.79,5.79,0,0,1,346.33,336.79Zm9.19-9.11v-8.16a4.71,4.71,0,0,0-1.7-1.47,4.63,4.63,0,0,0-2.3-.64,4.36,4.36,0,0,0-3.63,1.65,8.62,8.62,0,0,0-.07,9,4.28,4.28,0,0,0,3.58,1.58,5.09,5.09,0,0,0,2.18-.53A6.21,6.21,0,0,0,355.52,327.68Z" transform="translate(-2 -26.46)"/><path class="a" d="M368.14,327.11v-9.3h-2.71v-1.12h2.71V313h1.18v3.66h4.19v1.12h-4.19v9a3.25,3.25,0,0,0,.61,2.24,2.58,2.58,0,0,0,1.94.65,5.88,5.88,0,0,0,1.86-.25v1a6.28,6.28,0,0,1-2.08.31,3.48,3.48,0,0,1-2.57-.91A3.59,3.59,0,0,1,368.14,327.11Z" transform="translate(-2 -26.46)"/><path class="a" d="M378.46,309.16v8.19l-.06,1.57h.06a5.53,5.53,0,0,1,4.58-2.58,4,4,0,0,1,3.33,1.33,5.78,5.78,0,0,1,1.05,3.68v9h-1.16v-9.13a4.48,4.48,0,0,0-.79-2.82,3,3,0,0,0-2.49-1q-2.61,0-4.52,2.86v10.11h-1.17V309.16Z" transform="translate(-2 -26.46)"/><path class="a" d="M391.48,323.39a8.73,8.73,0,0,1,.75-3.74,5.72,5.72,0,0,1,2-2.45,5.22,5.22,0,0,1,2.93-.86,4.92,4.92,0,0,1,3.83,1.58q1.44,1.57,1.44,5v.51h-9.77a6.74,6.74,0,0,0,1.42,4.75,5.22,5.22,0,0,0,4,1.52,9.1,9.1,0,0,0,3.87-.78V330a8,8,0,0,1-3.87.76,6.27,6.27,0,0,1-4.92-1.92A7.85,7.85,0,0,1,391.48,323.39Zm5.73-6a3.94,3.94,0,0,0-3.06,1.39,5.8,5.8,0,0,0-1.41,3.56h8.54a5.94,5.94,0,0,0-1.07-3.69A3.63,3.63,0,0,0,397.21,317.38Z" transform="translate(-2 -26.46)"/><path class="a" d="M115.06,352.69l.23,1.92h0a7.08,7.08,0,0,1,2-1.7,4.92,4.92,0,0,1,2.46-.57,4.63,4.63,0,0,1,2.83.81,3.89,3.89,0,0,1,1.46,2h.06a7.38,7.38,0,0,1,2.1-2.11,4.88,4.88,0,0,1,2.59-.68,4.38,4.38,0,0,1,3.43,1.3,5.19,5.19,0,0,1,1.18,3.64v9.1h-1.17v-8.82q0-4.15-3.53-4.15a4,4,0,0,0-2.44.77,7.88,7.88,0,0,0-1.91,2.21v10h-1.17v-9.25a3.82,3.82,0,0,0-.93-2.72,3.44,3.44,0,0,0-2.65-1,4.33,4.33,0,0,0-2.33.63,8.33,8.33,0,0,0-2,1.83v10.51h-1.17V352.69Z" transform="translate(-2 -26.46)"/><path class="a" d="M138.39,348.08h1.35v1.41h-1.35Zm.09,4.61h1.17v13.69h-1.17Z" transform="translate(-2 -26.46)"/><path class="a" d="M145.8,352.69l.21,2.23h0a6.32,6.32,0,0,1,2-1.9,5,5,0,0,1,2.55-.68,4.11,4.11,0,0,1,3.28,1.28,5.57,5.57,0,0,1,1.1,3.73v9h-1.15V357.5a4.94,4.94,0,0,0-.8-3.07,3,3,0,0,0-2.57-1,4.38,4.38,0,0,0-2.42.77,6.85,6.85,0,0,0-2,2.09v10.11h-1.17V352.69Z" transform="translate(-2 -26.46)"/><path class="a" d="M160,348.08h1.35v1.41H160Zm.09,4.61h1.17v13.69h-1.17Z" transform="translate(-2 -26.46)"/><path class="a" d="M165.62,359.71v-1.23h6.45v1.23Z" transform="translate(-2 -26.46)"/><path class="a" d="M176.42,372.79V371.5a10.5,10.5,0,0,0,1.93.75,8.51,8.51,0,0,0,2.1.22q5.15,0,5.15-5.49v-2.07h-.06a5.11,5.11,0,0,1-1.79,1.31,5.55,5.55,0,0,1-2.41.52,5.31,5.31,0,0,1-4.33-1.9,7.91,7.91,0,0,1-1.57-5.22,8.06,8.06,0,0,1,1.63-5.34,5.65,5.65,0,0,1,4.56-1.94,4.5,4.5,0,0,1,2.4.6,6.66,6.66,0,0,1,1.57,1.26h.06l.18-1.51h.93V367a8.15,8.15,0,0,1-.72,3.72,4.7,4.7,0,0,1-2.14,2.11,8,8,0,0,1-3.54.7,12,12,0,0,1-2.31-.21A5.79,5.79,0,0,1,176.42,372.79Zm9.18-9.11v-8.16a5.29,5.29,0,0,0-4-2.11,4.37,4.37,0,0,0-3.63,1.65,8.64,8.64,0,0,0-.06,9,4.27,4.27,0,0,0,3.58,1.58,5.05,5.05,0,0,0,2.17-.53A6,6,0,0,0,185.6,363.68Z" transform="translate(-2 -26.46)"/><path class="a" d="M190.91,362.45a3.77,3.77,0,0,1,1.32-3,5,5,0,0,1,3.42-1.15,12.37,12.37,0,0,1,4.21.81v-1.76a4,4,0,0,0-1-2.94,4.45,4.45,0,0,0-3.23-1,11.41,11.41,0,0,0-3.51.69V353a4.89,4.89,0,0,1,1.47-.46,11,11,0,0,1,2-.2,5.76,5.76,0,0,1,4.07,1.25,4.9,4.9,0,0,1,1.34,3.76V362q0,1.44.12,4.38h-1.06l-.2-1.6h-.06a5.87,5.87,0,0,1-2,1.38,6,6,0,0,1-2.5.58,4.68,4.68,0,0,1-3.23-1.07A4,4,0,0,1,190.91,362.45Zm9,1.1v-3.41a11.88,11.88,0,0,0-2-.58,12.57,12.57,0,0,0-2.38-.17,3.59,3.59,0,0,0-2.5.8,2.85,2.85,0,0,0-.9,2.26,3.09,3.09,0,0,0,.89,2.44,3.42,3.42,0,0,0,2.36.8,5.1,5.1,0,0,0,2.65-.63A8.26,8.26,0,0,0,199.86,363.55Z" transform="translate(-2 -26.46)"/><path class="a" d="M207.18,352.69l.23,1.92h0a7.37,7.37,0,0,1,2-1.7,5,5,0,0,1,2.46-.57,4.61,4.61,0,0,1,2.83.81,3.89,3.89,0,0,1,1.46,2h.06a7.64,7.64,0,0,1,2.1-2.11,4.88,4.88,0,0,1,2.59-.68,4.41,4.41,0,0,1,3.44,1.3,5.24,5.24,0,0,1,1.18,3.64v9.1h-1.18v-8.82c0-2.77-1.17-4.15-3.53-4.15a4,4,0,0,0-2.44.77,8,8,0,0,0-1.91,2.21v10h-1.17v-9.25a3.82,3.82,0,0,0-.93-2.72,3.42,3.42,0,0,0-2.64-1,4.3,4.3,0,0,0-2.33.63,8.35,8.35,0,0,0-2,1.83v10.51h-1.17V352.69Z" transform="translate(-2 -26.46)"/><path class="a" d="M229.59,359.39a8.73,8.73,0,0,1,.75-3.74,5.79,5.79,0,0,1,2-2.45,5.24,5.24,0,0,1,2.93-.86,5,5,0,0,1,3.84,1.58c1,1.05,1.43,2.7,1.43,5v.51h-9.77a6.79,6.79,0,0,0,1.42,4.75,5.22,5.22,0,0,0,4,1.52,9,9,0,0,0,3.87-.78V366a8,8,0,0,1-3.87.76,6.27,6.27,0,0,1-4.92-1.92A7.85,7.85,0,0,1,229.59,359.39Zm5.73-6a3.94,3.94,0,0,0-3.06,1.39,5.8,5.8,0,0,0-1.41,3.56h8.54a5.87,5.87,0,0,0-1.07-3.69A3.63,3.63,0,0,0,235.32,353.38Z" transform="translate(-2 -26.46)"/><path class="a" d="M244,366v-1.22a7.58,7.58,0,0,0,3.72.87,4.26,4.26,0,0,0,2.76-.82,2.74,2.74,0,0,0,1-2.27,2.18,2.18,0,0,0-.68-1.72,5.28,5.28,0,0,0-2.25-1,16.82,16.82,0,0,1-2.38-.73,3.86,3.86,0,0,1-1.51-1.12,3,3,0,0,1-.58-1.93,3.28,3.28,0,0,1,1.29-2.85,5.49,5.49,0,0,1,3.29-.93,7.66,7.66,0,0,1,3.42.78v1.14a9.87,9.87,0,0,0-1.65-.65,6.83,6.83,0,0,0-1.85-.23,3.94,3.94,0,0,0-2.52.69,2.36,2.36,0,0,0-.85,1.95,2.11,2.11,0,0,0,.4,1.37,2.49,2.49,0,0,0,1.11.75,19.8,19.8,0,0,0,2.12.62,6.55,6.55,0,0,1,2.88,1.34,3.13,3.13,0,0,1,.9,2.41,3.87,3.87,0,0,1-1.32,3.08,5.28,5.28,0,0,1-3.6,1.15A7.8,7.8,0,0,1,244,366Z" transform="translate(-2 -26.46)"/><path class="a" d="M263.69,364.78h0l-.15,1.6h-1.06c.06-1.44.09-2.87.09-4.3V345.16h1.17v9.25h0a5.35,5.35,0,0,1,1.88-1.51,5.46,5.46,0,0,1,2.44-.56,5.3,5.3,0,0,1,4.31,1.81,8.18,8.18,0,0,1,1.51,5.36,8.94,8.94,0,0,1-.81,4,5.73,5.73,0,0,1-2.16,2.43,5.65,5.65,0,0,1-3,.8,4.93,4.93,0,0,1-2.47-.56A7.39,7.39,0,0,1,263.69,364.78Zm9-5.27q0-6.11-4.56-6.1a5.44,5.44,0,0,0-4.38,2.26v7.82a5.85,5.85,0,0,0,1.64,1.49,4.61,4.61,0,0,0,2.54.68,4.17,4.17,0,0,0,3.48-1.66A7.17,7.17,0,0,0,272.66,359.51Z" transform="translate(-2 -26.46)"/><path class="a" d="M277.08,359.39a8.73,8.73,0,0,1,.75-3.74,5.79,5.79,0,0,1,2.05-2.45,5.24,5.24,0,0,1,2.93-.86,5,5,0,0,1,3.84,1.58c1,1.05,1.43,2.7,1.43,5v.51h-9.77a6.79,6.79,0,0,0,1.42,4.75,5.22,5.22,0,0,0,4,1.52,9,9,0,0,0,3.87-.78V366a8,8,0,0,1-3.87.76,6.27,6.27,0,0,1-4.92-1.92A7.85,7.85,0,0,1,277.08,359.39Zm5.73-6a3.94,3.94,0,0,0-3.06,1.39,5.8,5.8,0,0,0-1.41,3.56h8.54a5.87,5.87,0,0,0-1.07-3.69A3.63,3.63,0,0,0,282.81,353.38Z" transform="translate(-2 -26.46)"/><path class="a" d="M292.61,345.16h1.17v21.22h-1.17Z" transform="translate(-2 -26.46)"/><path class="a" d="M298,359.56a7.84,7.84,0,0,1,1.67-5.25,6,6,0,0,1,8.91,0,7.93,7.93,0,0,1,1.65,5.26,7.75,7.75,0,0,1-1.69,5.2,5.5,5.5,0,0,1-4.41,2,5.57,5.57,0,0,1-4.46-1.95A7.76,7.76,0,0,1,298,359.56Zm11,0a7,7,0,0,0-1.32-4.49,4.66,4.66,0,0,0-7.13,0,7,7,0,0,0-1.32,4.49,6.93,6.93,0,0,0,1.31,4.46,4.35,4.35,0,0,0,3.59,1.64,4.31,4.31,0,0,0,3.56-1.64A6.93,6.93,0,0,0,309,359.56Z" transform="translate(-2 -26.46)"/><path class="a" d="M331.17,352.69l-4.09,13.69h-1.29L322,353.69h-.09l-3.63,12.69H317l-4.16-13.69h1.26l2.72,9.79.78,2.69h.06l3.57-12.48h1.57l2.84,9.73.78,2.75h.06l.48-1.62,3-10.86Z" transform="translate(-2 -26.46)"/><path class="a" d="M334,366.38v-1.89h1.8v1.89Z" transform="translate(-2 -26.46)"/><path class="b" d="M2.08,33.18a3.53,3.53,0,0,1-.08-.8,1.33,1.33,0,0,1,.3-.86,1,1,0,0,1,.85-.37H6c.62,0,1,.4,1.19,1.19l3.2,14.26c0,.21.11.56.22,1q1.56,7.66,1.66,8.23l.13.76c0,.11.07.17.18.17s.37-.15.49-.45a44.49,44.49,0,0,0,1.72-5.45l1.4-5.68c.44-1.87.85-3.75,1.21-5.61s.77-3.77,1.21-5.7A2.23,2.23,0,0,1,21,32h2a2.38,2.38,0,0,1,2.42,1.89c.85,2.83,1.41,4.8,1.7,5.92l4.22,16.88c0,.2.14.31.31.31s.3-.18.42-.52.3-.86.51-1.55.44-1.46.67-2.31L33.86,50a72.46,72.46,0,0,0,1.48-7.36c.25-1.88.41-3.19.5-3.93s.15-1.41.19-2c.07-.93.11-1.76.11-2.5s0-1.26,0-1.55a2.24,2.24,0,0,1,.2-.76,1.44,1.44,0,0,1,1.44-.76H39.6a1.43,1.43,0,0,1,1.62,1.29,5.08,5.08,0,0,1,.08.92c0,.33,0,.8,0,1.39s-.08,1.27-.16,2a81.94,81.94,0,0,1-3.88,17.48q-1.55,4.78-2.64,5.94a2.94,2.94,0,0,1-2.27.88H30.77c-1.91,0-3.16-1.14-3.73-3.42L22,37.73a.11.11,0,0,0-.12-.1c-.06,0-.09,0-.09.1l-1.08,5.82A83.37,83.37,0,0,1,17.1,57.77a8.12,8.12,0,0,1-1.19,2.5,3.3,3.3,0,0,1-2.44.82H11.9a3.18,3.18,0,0,1-2.26-.75,4.91,4.91,0,0,1-1.23-2.49Z" transform="translate(-2 -26.46)"/><path class="b" d="M50.19,51.15l0,.37a5.65,5.65,0,0,0,1.7,4.3,6.66,6.66,0,0,0,4.82,1.72,8.9,8.9,0,0,0,5.16-1.66,1.45,1.45,0,0,1,.8-.32,1.17,1.17,0,0,1,1.09.73l.53,1.09a2.14,2.14,0,0,1,.17.84,1.46,1.46,0,0,1-.4.93A4,4,0,0,1,63,60a8,8,0,0,1-1.5.68,14.44,14.44,0,0,1-1.74.49,17.66,17.66,0,0,1-3.75.39,11.25,11.25,0,0,1-3.94-.74,9.78,9.78,0,0,1-3.43-2.17,10.91,10.91,0,0,1-3.1-8.19q0-9,6.36-11.25a12.73,12.73,0,0,1,4.1-.68,12.31,12.31,0,0,1,3.57.45,7.37,7.37,0,0,1,2.55,1.33,6.31,6.31,0,0,1,2.26,5.17,5.56,5.56,0,0,1-2.65,5A11.09,11.09,0,0,1,55.6,52,20.73,20.73,0,0,1,50.19,51.15Zm9.6-5.7q0-2.81-3.75-2.8c-2.38,0-4,.87-5,2.62a6.2,6.2,0,0,0-.66,2.27,9.57,9.57,0,0,0,4.28.84Q59.79,48.38,59.79,45.45Z" transform="translate(-2 -26.46)"/><path class="b" d="M75,55.72c0,.92.32,1.39,1,1.39a2.5,2.5,0,0,0,.8-.18,5.17,5.17,0,0,1,1.09-.33c.3,0,.53.19.7.56l.61,1.39a1.48,1.48,0,0,1,.12.55c0,.3-.25.66-.75,1.09a5.88,5.88,0,0,1-3.88,1.23c-2.92,0-4.38-1.94-4.38-5.84V27.73a1.36,1.36,0,0,1,.32-.9.94.94,0,0,1,.74-.37H74a1,1,0,0,1,.75.37,1.45,1.45,0,0,1,.29.9Z" transform="translate(-2 -26.46)"/><path class="b" d="M98.25,47.75a1.41,1.41,0,0,1-1.6-1.58,3.44,3.44,0,0,0-1.11-2.77A3.77,3.77,0,0,0,93,42.56a5,5,0,0,0-2.67.66,5.58,5.58,0,0,0-1.72,1.7,8.9,8.9,0,0,0-1.29,4.88c0,3.56,1.09,5.89,3.25,7a5.47,5.47,0,0,0,2.59.61,7.69,7.69,0,0,0,2.35-.31,12.08,12.08,0,0,0,1.64-.69c.48-.24.9-.47,1.26-.68a1.86,1.86,0,0,1,.89-.31,1.25,1.25,0,0,1,1.11.64l.43.72a1.93,1.93,0,0,1,.29,1,1.69,1.69,0,0,1-.39,1,4.15,4.15,0,0,1-1,.94,8.78,8.78,0,0,1-1.5.78,14.77,14.77,0,0,1-1.73.61,11.84,11.84,0,0,1-7.86-.35,9.61,9.61,0,0,1-5.48-6,14.48,14.48,0,0,1-.75-4.8,13.71,13.71,0,0,1,.79-4.77,10.39,10.39,0,0,1,2.2-3.57,10.08,10.08,0,0,1,7.6-3,8.67,8.67,0,0,1,6.35,2.17,6.32,6.32,0,0,1,1.85,4.65,2.12,2.12,0,0,1-2.42,2.36Z" transform="translate(-2 -26.46)"/><path class="b" d="M105.63,50a12.51,12.51,0,0,1,.85-4.66,10.87,10.87,0,0,1,2.34-3.62,10.54,10.54,0,0,1,7.83-3.15q5.3,0,8.2,3.15c1.88,2,2.82,4.79,2.82,8.32a11.46,11.46,0,0,1-3.19,8.36,11.35,11.35,0,0,1-15.84-.08A11.66,11.66,0,0,1,105.63,50Zm6.28-5a7.58,7.58,0,0,0-1.06,2.46,11.89,11.89,0,0,0-.33,2.79A9.34,9.34,0,0,0,110.9,53,7.08,7.08,0,0,0,112,55.31a5.55,5.55,0,0,0,4.69,2.23,5.39,5.39,0,0,0,4.65-2.19,8.71,8.71,0,0,0,1.4-5.22q0-4.93-3.24-6.81a6.42,6.42,0,0,0-5.73,0A5.38,5.38,0,0,0,111.91,45Z" transform="translate(-2 -26.46)"/><path class="b" d="M145.6,38.57c3.28,0,5.35,1.47,6.23,4.4A9,9,0,0,1,157,38.86a10.61,10.61,0,0,1,2.76-.31,6.78,6.78,0,0,1,3.21.82,5.56,5.56,0,0,1,2.3,2.14,7.94,7.94,0,0,1,1,2.9,26,26,0,0,1,.21,3.4v12a1.27,1.27,0,0,1-.36.92,1.34,1.34,0,0,1-1,.37h-1.92a1.44,1.44,0,0,1-1.09-.37,1.3,1.3,0,0,1-.35-.92V47.63a6.53,6.53,0,0,0-.87-3.75,3.12,3.12,0,0,0-2.74-1.23,4.78,4.78,0,0,0-3.73,1.88,7,7,0,0,0-1.72,4.84V59.8a1.3,1.3,0,0,1-.35.92,1.36,1.36,0,0,1-1,.37h-1.91a1.45,1.45,0,0,1-1.1-.37,1.3,1.3,0,0,1-.35-.92V47.63a6.53,6.53,0,0,0-.87-3.75,3.12,3.12,0,0,0-2.74-1.23,4.85,4.85,0,0,0-3.75,1.88,7.06,7.06,0,0,0-1.7,4.84V59.8a1.33,1.33,0,0,1-.33.92,1.3,1.3,0,0,1-1,.37h-2a1.36,1.36,0,0,1-1-.37,1.3,1.3,0,0,1-.35-.92v-12a39.62,39.62,0,0,0-.25-5.48c-.17-1-.26-1.66-.26-1.86q0-1.41,1.35-1.41H136a1.47,1.47,0,0,1,1.48.82,14.9,14.9,0,0,1,.9,3.09,8.25,8.25,0,0,1,4.92-4.07A8,8,0,0,1,145.6,38.57Z" transform="translate(-2 -26.46)"/><path class="b" d="M176.75,51.15l0,.37a5.65,5.65,0,0,0,1.7,4.3,6.66,6.66,0,0,0,4.82,1.72,8.9,8.9,0,0,0,5.16-1.66,1.45,1.45,0,0,1,.8-.32,1.16,1.16,0,0,1,1.09.73l.53,1.09a2,2,0,0,1,.18.84,1.51,1.51,0,0,1-.4.93,4.2,4.2,0,0,1-1.05.87,8.24,8.24,0,0,1-1.49.68,14.6,14.6,0,0,1-1.75.49,17.66,17.66,0,0,1-3.75.39,11.29,11.29,0,0,1-3.94-.74,9.65,9.65,0,0,1-3.42-2.17,10.88,10.88,0,0,1-3.11-8.19q0-9,6.37-11.25a12.62,12.62,0,0,1,4.09-.68,12.31,12.31,0,0,1,3.57.45,7.2,7.2,0,0,1,2.55,1.33A6.32,6.32,0,0,1,191,45.5a5.56,5.56,0,0,1-2.66,5A11.06,11.06,0,0,1,182.16,52,20.8,20.8,0,0,1,176.75,51.15Zm9.61-5.7q0-2.81-3.75-2.8c-2.39,0-4.05.87-5,2.62a6.2,6.2,0,0,0-.67,2.27,9.57,9.57,0,0,0,4.28.84Q186.37,48.38,186.36,45.45Z" transform="translate(-2 -26.46)"/><path class="b" d="M218.76,42c0,.73-.41,1.09-1.23,1.09H212V55.39a1.75,1.75,0,0,0,2,2,6.82,6.82,0,0,0,3.27-1.25,1.51,1.51,0,0,1,.85-.25c.3,0,.55.21.73.64l.45,1a2.56,2.56,0,0,1,.25,1c0,.28-.2.59-.61.95a6.37,6.37,0,0,1-1.58,1,9.65,9.65,0,0,1-3.92,1,8.74,8.74,0,0,1-2.79-.36A4.58,4.58,0,0,1,208.9,60a5.84,5.84,0,0,1-1.57-4.4V43.12h-1.64q-1.23,0-1.23-1.11V40.9a1,1,0,0,1,.24-.71,1.69,1.69,0,0,1,.92-.39l1.95-.57.74-4.58c.14-.86.5-1.29,1.06-1.29H211a.92.92,0,0,1,.74.36,1.46,1.46,0,0,1,.29.93v4.41h5.51c.82,0,1.23.36,1.23,1.07Z" transform="translate(-2 -26.46)"/><path class="b" d="M222.2,50a12.31,12.31,0,0,1,.85-4.66,10.69,10.69,0,0,1,2.33-3.62,10.54,10.54,0,0,1,7.83-3.15q5.29,0,8.21,3.15c1.87,2,2.81,4.79,2.81,8.32A11.42,11.42,0,0,1,241,58.4a11.34,11.34,0,0,1-15.83-.08A11.62,11.62,0,0,1,222.2,50Zm6.28-5a7.39,7.39,0,0,0-1.07,2.46,11.89,11.89,0,0,0-.33,2.79,9.7,9.7,0,0,0,.38,2.71,7.28,7.28,0,0,0,1.14,2.32,5.56,5.56,0,0,0,4.69,2.23,5.39,5.39,0,0,0,4.65-2.19,8.64,8.64,0,0,0,1.41-5.22c0-3.29-1.09-5.56-3.25-6.81a5.63,5.63,0,0,0-2.88-.69,5.72,5.72,0,0,0-2.85.66A5.35,5.35,0,0,0,228.48,45Z" transform="translate(-2 -26.46)"/><path class="b" d="M261.22,32.4a1.32,1.32,0,0,1,.32-.88,1,1,0,0,1,.77-.37h2.74a1,1,0,0,1,.76.37,1.32,1.32,0,0,1,.31.88V56.73h10.59a.93.93,0,0,1,.77.33,1.18,1.18,0,0,1,.26.79V60a1.16,1.16,0,0,1-.26.77,1,1,0,0,1-.77.32H262.29a1,1,0,0,1-.76-.37,1.37,1.37,0,0,1-.31-.88Z" transform="translate(-2 -26.46)"/><path class="b" d="M301.2,60.06a.9.9,0,0,1-1,1h-1.9c-.51,0-.81-.1-.92-.3a1.49,1.49,0,0,1-.17-.55c0-.16,0-.36-.08-.59-.08-.64-.19-1.33-.33-2.08a7.44,7.44,0,0,1-4.79,3.7,10,10,0,0,1-2.54.31,8.65,8.65,0,0,1-2.77-.46,7.38,7.38,0,0,1-2.46-1.36,6.59,6.59,0,0,1-2.42-5.33,6.4,6.4,0,0,1,2.65-5.53,9.55,9.55,0,0,1,5.63-1.54,8.73,8.73,0,0,1,5.82,2c0-.44.06-1,.06-1.66a5.42,5.42,0,0,0-.39-2,4.43,4.43,0,0,0-1.12-1.66,6.06,6.06,0,0,0-4.14-1.31,10.28,10.28,0,0,0-4.84,1.31,1.76,1.76,0,0,1-.82.25c-.35,0-.69-.34-1-1a4.06,4.06,0,0,1-.52-1.53c0-.57.42-1.12,1.28-1.66A12.48,12.48,0,0,1,291,38.57a9.35,9.35,0,0,1,6.21,2,8.6,8.6,0,0,1,2.91,7,25,25,0,0,1-.65,5A26.38,26.38,0,0,1,301.2,60.06Zm-13.08-8.3A4.23,4.23,0,0,0,287,53a2.75,2.75,0,0,0-.34,1.37,3.48,3.48,0,0,0,.28,1.41,2.78,2.78,0,0,0,.8,1,3.8,3.8,0,0,0,2.41.84,6.44,6.44,0,0,0,2.19-.31,5.28,5.28,0,0,0,1.49-.8,2.9,2.9,0,0,0,1.35-2.23,2.85,2.85,0,0,0-1.62-2.3,6.26,6.26,0,0,0-3.19-.78A3.68,3.68,0,0,0,288.12,51.76Z" transform="translate(-2 -26.46)"/><path class="b" d="M323.25,57.11l1.64-.32c.46,0,.74.31.86.92l.28,1.41a3.92,3.92,0,0,1,0,.42,1.3,1.3,0,0,1-.24.69,2.06,2.06,0,0,1-.65.63,4.29,4.29,0,0,1-2.29.56,5.44,5.44,0,0,1-4.59-2.67,10.94,10.94,0,0,1-.74-1.18l-2.7-4.76-1.17,1.6a17.63,17.63,0,0,0-2.89,5.41,3.09,3.09,0,0,1-.38.9.94.94,0,0,1-.85.37H308a.91.91,0,0,1-.73-.36,1.32,1.32,0,0,1-.31-.91V27.69a1.28,1.28,0,0,1,.31-.88.93.93,0,0,1,.73-.35h2.69a1,1,0,0,1,.75.35,1.37,1.37,0,0,1,.29.88l.06,16.47a44,44,0,0,1-.34,5c-.23,1.88-.38,3.12-.44,3.71v.08c0,.1,0,.15.07.15s.28-.17.47-.51a69.85,69.85,0,0,1,9.75-13.45,1.54,1.54,0,0,1,1.05-.61,1.77,1.77,0,0,1,1.33.63l.88,1a2.32,2.32,0,0,1,.65,1.16,1.47,1.47,0,0,1-.51,1.17l-3.52,3.46c-1.2,1.22-2.33,2.5-3.42,3.84l1.47,2.52Q322,57.11,323.25,57.11Z" transform="translate(-2 -26.46)"/><path class="b" d="M333.47,51.15l0,.37a5.65,5.65,0,0,0,1.7,4.3A6.66,6.66,0,0,0,340,57.54a8.9,8.9,0,0,0,5.16-1.66,1.45,1.45,0,0,1,.8-.32,1.17,1.17,0,0,1,1.09.73l.53,1.09a2,2,0,0,1,.17.84,1.46,1.46,0,0,1-.4.93,4,4,0,0,1-1,.87,8.24,8.24,0,0,1-1.49.68,14.6,14.6,0,0,1-1.75.49,17.66,17.66,0,0,1-3.75.39,11.29,11.29,0,0,1-3.94-.74,9.78,9.78,0,0,1-3.43-2.17,10.91,10.91,0,0,1-3.1-8.19q0-9,6.37-11.25a12.62,12.62,0,0,1,4.09-.68,12.31,12.31,0,0,1,3.57.45,7.37,7.37,0,0,1,2.55,1.33,6.32,6.32,0,0,1,2.27,5.17,5.56,5.56,0,0,1-2.66,5A11.06,11.06,0,0,1,338.88,52,20.73,20.73,0,0,1,333.47,51.15Zm9.61-5.7q0-2.81-3.75-2.8c-2.39,0-4.05.87-5,2.62a6.2,6.2,0,0,0-.67,2.27,9.57,9.57,0,0,0,4.28.84C341.36,48.38,343.08,47.4,343.08,45.45Z" transform="translate(-2 -26.46)"/><path class="b" d="M364.52,32.4a1.32,1.32,0,0,1,.32-.88,1,1,0,0,1,.78-.37h17.16a.94.94,0,0,1,.77.32,1.2,1.2,0,0,1,.27.79v2.11a1.15,1.15,0,0,1-.27.77.92.92,0,0,1-.77.33H369.42V44h10.63a1,1,0,0,1,.77.32,1.19,1.19,0,0,1,.26.79v2.11a1.14,1.14,0,0,1-.26.77.93.93,0,0,1-.77.33H369.42v8.43h13.46a.92.92,0,0,1,.77.33,1.17,1.17,0,0,1,.27.79V60a1.17,1.17,0,0,1-.27.77.94.94,0,0,1-.77.32H365.6a1,1,0,0,1-.77-.37,1.37,1.37,0,0,1-.31-.88Z" transform="translate(-2 -26.46)"/><path class="b" d="M389.66,40.47q0-1.41,1.23-1.41h1.05a1.56,1.56,0,0,1,1.53.94,12.44,12.44,0,0,1,.93,3.77s0,0,0,0a2.69,2.69,0,0,0,.13-.67,5.8,5.8,0,0,1,.57-1.63,5.62,5.62,0,0,1,1.15-1.63,4.78,4.78,0,0,1,3.4-1.31,5,5,0,0,1,3.12.74.91.91,0,0,1,.33.92l-.31,2.46c-.08.67-.41,1-1,1a4,4,0,0,1-1.06-.18,8,8,0,0,0-1.91-.31,2.44,2.44,0,0,0-1.49.61A5.88,5.88,0,0,0,396,45.35a7.74,7.74,0,0,0-1.16,4.08V59.8a1.37,1.37,0,0,1-.31.92,1.11,1.11,0,0,1-.9.37h-2.26a1.17,1.17,0,0,1-.95-.37,1.32,1.32,0,0,1-.32-.92V46.34a28.28,28.28,0,0,0-.23-4.54A10.12,10.12,0,0,1,389.66,40.47Z" transform="translate(-2 -26.46)"/><path class="b" d="M409.19,35.29a3.14,3.14,0,0,1-2.27-.92,3,3,0,0,1-.93-2.26,3.13,3.13,0,0,1,3.2-3.17,3.15,3.15,0,0,1,3.18,3.17,3,3,0,0,1-.93,2.26A3.13,3.13,0,0,1,409.19,35.29Zm2.28,20.43c0,.92.31,1.39.92,1.39a1.77,1.77,0,0,0,.71-.18,3.28,3.28,0,0,1,1-.33c.27,0,.5.19.66.56l.61,1.37a1.54,1.54,0,0,1,.16.63c0,.56-.48,1.08-1.45,1.56a5.84,5.84,0,0,1-2.7.7,6.49,6.49,0,0,1-2.14-.29,3.16,3.16,0,0,1-1.37-1,7.33,7.33,0,0,1-1.13-4.57V40.35a1.37,1.37,0,0,1,.31-.92.94.94,0,0,1,.74-.37h2.62a.89.89,0,0,1,.74.37,1.41,1.41,0,0,1,.29.92Z" transform="translate(-2 -26.46)"/><path class="b" d="M423.43,51.15l0,.37a5.65,5.65,0,0,0,1.7,4.3,6.66,6.66,0,0,0,4.82,1.72,8.9,8.9,0,0,0,5.16-1.66,1.45,1.45,0,0,1,.8-.32,1.16,1.16,0,0,1,1.09.73l.53,1.09a2,2,0,0,1,.18.84,1.51,1.51,0,0,1-.4.93,4.2,4.2,0,0,1-1.05.87,8.24,8.24,0,0,1-1.49.68,14.6,14.6,0,0,1-1.75.49,17.66,17.66,0,0,1-3.75.39,11.29,11.29,0,0,1-3.94-.74,9.78,9.78,0,0,1-3.43-2.17,10.91,10.91,0,0,1-3.1-8.19q0-9,6.37-11.25a12.62,12.62,0,0,1,4.09-.68,12.31,12.31,0,0,1,3.57.45,7.2,7.2,0,0,1,2.55,1.33,6.32,6.32,0,0,1,2.27,5.17,5.56,5.56,0,0,1-2.66,5A11.06,11.06,0,0,1,428.84,52,20.8,20.8,0,0,1,423.43,51.15Zm9.61-5.7q0-2.81-3.75-2.8c-2.39,0-4.05.87-5,2.62a6.2,6.2,0,0,0-.67,2.27,9.57,9.57,0,0,0,4.28.84Q433,48.38,433,45.45Z" transform="translate(-2 -26.46)"/><path class="b" d="M441.57,58.14a3.36,3.36,0,0,1,1-2.4,3.18,3.18,0,0,1,2.38-1,3.11,3.11,0,0,1,2.35,1,3.48,3.48,0,0,1,0,4.82,3.16,3.16,0,0,1-2.35,1,3.21,3.21,0,0,1-2.38-1A3.36,3.36,0,0,1,441.57,58.14Z" transform="translate(-2 -26.46)"/></svg>