<svg xmlns="http://www.w3.org/2000/svg" viewBox="0 0 144 160"><defs><style>.a{fill:#22814c;}.b{fill:#428100;}.c{fill:#003600;}.d{fill:#006824;}</style></defs><title>runoff</title><ellipse class="a" cx="42.5" cy="121" rx="17.5" ry="10"/><ellipse class="a" cx="80" cy="140.5" rx="32" ry="19.5"/><ellipse class="a" cx="117" cy="121.5" rx="27" ry="18.5"/><ellipse class="a" cx="101" cy="100.5" rx="21" ry="11.5"/><ellipse class="b" cx="64.5" cy="106" rx="19.5" ry="11"/><ellipse class="b" cx="61.5" cy="127" rx="24.5" ry="13"/><ellipse class="b" cx="93" cy="114" rx="29" ry="17"/><rect class="c" y="15" width="40" height="50"/><ellipse class="d" cx="43" cy="40" rx="12.5" ry="40"/><ellipse class="c" cx="43" cy="40" rx="5" ry="25"/><path class="b" d="M48,47H38.2c.16,2.8.42,5.39.76,7.69a71,71,0,0,1,5.66,9C49.53,72.83,54,85.88,54,103H84C84,65,48,47,48,47Z"/></svg>