<svg xmlns="http://www.w3.org/2000/svg" viewBox="0 0 84.77 52.24"><defs><style>.a{fill:#90e2f1;}.b{fill:#d43b36;}.c{fill:#7f8883;}</style></defs><title>trash</title><path class="a" d="M87.36,29C87,28,86.19,26,85.81,24.94s-4.13.41-3.74,1.43c.08.21.17.46.28.74C76.94,25.78,64,22.75,61.75,23.6c0,0-27.1,10.31-28.61,12s2,11,2,11S38.74,55.9,41,56.12,70.29,46,70.29,46c2.21-.85,9.89-11.74,13-16.32l.28.74C84,31.47,87.75,30,87.36,29Z" transform="translate(-2.61 -3.88)"/><path class="b" d="M4.21,16.37,17.09,21.5c1.78.7,4.32-1.49,5.68-4.9s1-6.75-.76-7.46L9.13,4Z" transform="translate(-2.61 -3.88)"/><ellipse class="c" cx="6.67" cy="10.19" rx="6.65" ry="3.47" transform="translate(-7.88 8.74) rotate(-68.3)"/></svg>