<svg xmlns="http://www.w3.org/2000/svg" viewBox="0 0 80 120"><defs><style>.a{fill:#009ad6;}</style></defs><title>water3</title><path class="a" d="M40,120C14.21,120,0,105.06,0,77.92,0,52.82,29.09,8.58,41.44,1.48,45.3-.74,48.08-.06,49.74.91S53.42,4,53.4,8.67h0c-.06,10.73,5.7,19.81,11.8,29.41C72.14,49,80,61.41,80,77.92,80,105.06,65.79,120,40,120ZM43.56,12.4c-4,3.76-10.61,11.7-17.88,23.86C15.86,52.66,10,68.23,10,77.92,10,99.81,19.53,110,40,110S70,99.81,70,77.92c0-13.6-6.43-23.74-13.25-34.48C50.78,34,44.61,24.31,43.56,12.4Z" transform="translate(0 0)"/></svg>