<svg xmlns="http://www.w3.org/2000/svg" viewBox="0 0 130 110"><defs><style>.a{fill:#efc;}.b{fill:#6a6d5b;}.c{fill:#4a4c3d;}.d{fill:#007022;}</style></defs><title>wetland</title><rect class="a" width="130" height="110"/><rect class="b" y="65" width="130" height="45"/><path class="c" d="M125,5V105H5V5H125m5-5H0V110H130V0Z"/><path class="c" d="M105.89,95.36a41.08,41.08,0,0,0,11.73,1.69,44.22,44.22,0,0,0,7.38-.63V93.68c-11.16,2.2-21.6-.52-31-8.08a52.78,52.78,0,0,1-10.23-11A80.52,80.52,0,0,0,101.29,65H95.68q-12.59,8.43-33,13.16c-3.62.84-7.15,1.51-10.46,2a58.52,58.52,0,0,0,3.07-8.68A24.5,24.5,0,0,0,56.18,65H51.85c0,4.5-2.09,11.07-4.46,15.93C39.11,82.06,32.86,82.36,31,82.42A34.21,34.21,0,0,0,20.4,75.65a21,21,0,0,0,5-10.65H21.06C20.78,66.91,18.68,76.93,5,82.45v3.08a35.76,35.76,0,0,0,13.25-7.6,31.09,31.09,0,0,1,9.07,5.94A28.78,28.78,0,0,1,36.5,105h4.32a30.49,30.49,0,0,0-7.41-20,186,186,0,0,0,30.65-4.31A135.68,135.68,0,0,0,80,76,52.56,52.56,0,0,0,98.88,92.58C96.65,94.47,90.8,99.74,88.24,105h4.52c2.51-4.55,7.62-9.16,9.6-10.86C103.5,94.59,104.67,95,105.89,95.36Z"/><path class="d" d="M32.5,59s3.75,1.43,3.75,10Z"/><path class="d" d="M37.5,67.57s-1.25-8.59,0-12.88S37.5,67.57,37.5,67.57Z"/><path class="d" d="M38.75,67.57s3.75-7.16,3.75-10S38.75,67.57,38.75,67.57Z"/><path class="d" d="M117.5,65s-3.75,1.43-3.75,10Z"/><path class="d" d="M112.5,73.57s1.25-8.59,0-12.88S112.5,73.57,112.5,73.57Z"/><path class="d" d="M111.25,73.57s-3.75-7.16-3.75-10S111.25,73.57,111.25,73.57Z"/><path class="d" d="M79.5,82s-6,1.43-6,10Z"/><path class="d" d="M73.5,91.05s-3.75-4.77-3.75-6.68S73.5,91.05,73.5,91.05Z"/></svg>